<?xml version="1.0" standalone="no"?>
<!DOCTYPE svg PUBLIC "-//W3C//DTD SVG 1.1//EN" "http://www.w3.org/Graphics/SVG/1.1/DTD/svg11.dtd" >
<svg>
<metadata>
Created by FontForge 20120731 at Thu Aug 29 00:34:29 2019
 By www-data
Copyright (c) 2012 by Max Pirsky. All rights reserved.
</metadata>
<defs>
<font id="Prime-Regular" horiz-adv-x="548" >
  <font-face 
    font-family="Prime"
    font-weight="400"
    font-stretch="normal"
    units-per-em="1000"
    panose-1="0 0 0 0 0 0 0 0 0 0"
    ascent="750"
    descent="-250"
    x-height="500"
    cap-height="751"
    bbox="-128 -244 1093 969"
    underline-thickness="50"
    underline-position="-50"
    unicode-range="U+0020-2265"
  />
<missing-glyph horiz-adv-x="200" 
 />
    <glyph glyph-name=".notdef" horiz-adv-x="200" 
 />
    <glyph glyph-name=".null" horiz-adv-x="0" 
 />
    <glyph glyph-name="nonmarkingreturn" horiz-adv-x="200" 
 />
    <glyph glyph-name="space" unicode=" " horiz-adv-x="379" 
 />
    <glyph glyph-name="A" unicode="A" horiz-adv-x="747" 
d="M729 0h-82q-7 0 -11.5 4t-6.5 9l-67 193h-382l-67 -193q-2 -5 -7 -9t-11 -4h-82l244 695q9 25 30.5 40.5t48.5 15.5h119q9 0 12 -7zM532 292l-130 373h-49q-13 0 -18 -13l-125 -360h322z" />
    <glyph glyph-name="Aacute" unicode="&#xc1;" horiz-adv-x="772" 
d="M393 896q2 4 8 7t12 3h95l-60 -90q-3 -4 -9.5 -7t-11.5 -3h-85zM744 0h-82q-7 0 -11.5 4t-6.5 9l-67 193h-382l-67 -193q-2 -5 -7 -9t-11 -4h-82l244 695q9 25 30.5 40.5t48.5 15.5h119q9 0 12 -7zM547 292l-130 373h-49q-13 0 -18 -13l-125 -360h322z" />
    <glyph glyph-name="Acircumflex" unicode="&#xc2;" horiz-adv-x="772" 
d="M437 911.5q7 -4.5 10 -9.5l106 -99h-78q-10 0 -17.5 2.5t-19.5 16.5l-48 45l-49 -46q-11 -12 -18.5 -15t-12 -3h-5.5h-78l105 99q3 5 10 9.5t13 4.5h69q6 0 13 -4.5zM744 0h-82q-7 0 -11.5 4t-6.5 9l-67 193h-382l-67 -193q-2 -5 -7 -9t-11 -4h-82l244 695
q9 25 30.5 40.5t48.5 15.5h119q9 0 12 -7zM547 292l-130 373h-49q-13 0 -18 -13l-125 -360h322z" />
    <glyph glyph-name="Adieresis" unicode="&#xc4;" horiz-adv-x="772" 
d="M244 825.5q-4 4.5 -4 9.5v78h77q6 0 10 -4.5t4 -10.5v-77h-77q-6 0 -10 4.5zM448 825.5q-4 4.5 -4 9.5v78h77q6 0 10 -4.5t4 -10.5v-77h-77q-6 0 -10 4.5zM744 0h-82q-7 0 -11.5 4t-6.5 9l-67 193h-382l-67 -193q-2 -5 -7 -9t-11 -4h-82l244 695q9 25 30.5 40.5
t48.5 15.5h119q9 0 12 -7zM547 292l-130 373h-49q-13 0 -18 -13l-125 -360h322z" />
    <glyph glyph-name="Agrave" unicode="&#xc0;" horiz-adv-x="772" 
d="M350.5 809q-6.5 3 -8.5 7l-62 97h97q6 0 12 -3t8 -8l52 -96h-87q-5 0 -11.5 3zM744 0h-82q-7 0 -11.5 4t-6.5 9l-67 193h-382l-67 -193q-2 -5 -7 -9t-11 -4h-82l244 695q9 25 30.5 40.5t48.5 15.5h119q9 0 12 -7zM547 292l-130 373h-49q-13 0 -18 -13l-125 -360h322z" />
    <glyph glyph-name="Aogonek" unicode="&#x104;" horiz-adv-x="746" 
d="M719.5 -141.5q5.5 -5.5 5.5 -13.5v-41h-100q-24 0 -41 17t-17 41v53l95 85h-15q-13 0 -18 13l-67 193h-382l-67 -193q-3 -13 -18 -13h-82l245 695q8 25 30 40.5t49 15.5h119q8 0 11 -7l262 -744l-100 -103v-25q0 -8 9 -8h68q8 0 13.5 -5.5zM532 292l-130 373h-48
q-14 0 -19 -13l-125 -360h322z" />
    <glyph glyph-name="Aring" unicode="&#xc5;" horiz-adv-x="772" 
d="M311 820q-20 18 -20 43v45q0 25 20 43t48 18h51q28 0 48 -18t20 -43v-45q0 -25 -20 -43t-48 -18h-51q-28 0 -48 18zM355 858.5q4 -3.5 9 -3.5h41q6 0 10 3.5t4 8.5v37q0 5 -4 8.5t-10 3.5h-41q-5 0 -9 -3.5t-4 -8.5v-37q0 -5 4 -8.5zM744 0h-82q-7 0 -11.5 4t-6.5 9
l-67 193h-382l-67 -193q-2 -5 -7 -9t-11 -4h-82l244 695q9 25 30.5 40.5t48.5 15.5h119q9 0 12 -7zM547 292l-130 373h-49q-13 0 -18 -13l-125 -360h322z" />
    <glyph glyph-name="Atilde" unicode="&#xc3;" horiz-adv-x="772" 
d="M316.5 826.5q-4.5 -4.5 -11.5 -4.5h-41v73q0 14 10.5 24.5t25.5 10.5h42q7 0 16 -2.5t14 -5.5l55 -34q6 -4 13 -4h7q5 0 8 3.5t3 7.5v19q0 7 4.5 11.5t11.5 4.5h41v-73q0 -14 -10.5 -24.5t-25.5 -10.5h-43q-15 0 -29 8l-55 34q-8 4 -14 4h-6q-4 0 -7.5 -3t-3.5 -8v-19
q0 -7 -4.5 -11.5zM744 0h-82q-7 0 -11.5 4t-6.5 9l-67 193h-382l-67 -193q-2 -5 -7 -9t-11 -4h-82l244 695q9 25 30.5 40.5t48.5 15.5h119q9 0 12 -7zM547 292l-130 373h-49q-13 0 -18 -13l-125 -360h322z" />
    <glyph glyph-name="AE" unicode="&#xc6;" horiz-adv-x="938" 
d="M534 669v-270q18 20 49 20h288v-73q0 -5 -4 -9t-9 -4h-324v-171q0 -31 22.5 -53.5t54.5 -22.5h282q5 0 9 -4t4 -9v-73h-292q-46 0 -85.5 23t-62.5 62t-23 85v36h-276l-67 -193q-3 -13 -18 -13h-82l245 695q8 25 30 40.5t49 15.5h582v-69q0 -5 -4 -9t-9 -4h-359zM443 669
h-102q-14 0 -19 -13l-125 -364h246v377z" />
    <glyph glyph-name="B" unicode="B" horiz-adv-x="662" 
d="M80 17q-17 17 -17 41v637q0 23 16.5 39.5t39.5 16.5h320q46 0 85 -23t62 -62t23 -85v-76q0 -38 -26.5 -76.5t-65.5 -46.5q39 -10 65.5 -47.5t26.5 -75.5v-88q0 -46 -23 -85.5t-62 -62.5t-85 -23h-318q-24 0 -41 17zM157 425h282q32 0 54 22.5t22 53.5v88q0 32 -22 54
t-54 22h-263q-8 0 -13.5 -5.5t-5.5 -13.5v-221zM515 263q0 32 -22 54t-54 22h-282v-234q0 -8 5.5 -13.5t13.5 -5.5h263q31 0 53.5 22.5t22.5 54.5v100z" />
    <glyph glyph-name="C" unicode="C" horiz-adv-x="609" 
d="M60 581q0 46 23 85t62 62t85 23h330v-73q0 -5 -4 -9t-9 -4h-317q-31 0 -53.5 -22t-22.5 -54v-427q0 -31 22.5 -53.5t53.5 -22.5h317q5 0 9 -4t4 -9v-73h-330q-46 0 -85 23t-62 62t-23 85v411z" />
    <glyph glyph-name="Cacute" unicode="&#x106;" horiz-adv-x="609" 
d="M380 821q-5 -3 -10 -3h-71l42 101q2 5 7.5 8.5t10.5 3.5h71l-43 -102q-2 -5 -7 -8zM176.5 643q-22.5 -22 -22.5 -54v-427q0 -31 22.5 -53.5t53.5 -22.5h317q5 0 9 -4t4 -9v-73h-330q-46 0 -85 23t-62 62t-23 85v411q0 46 23 85t62 62t85 23h330v-73q0 -5 -4 -9t-9 -4
h-317q-31 0 -53.5 -22z" />
    <glyph glyph-name="Ccedilla" unicode="&#xc7;" horiz-adv-x="584" 
d="M55 581q0 46 23 85t62 62t85 23h330v-73q0 -5 -4 -9t-9 -4h-317q-31 0 -53.5 -22t-22.5 -54v-427q0 -31 22.5 -53.5t53.5 -22.5h317q5 0 9 -4t4 -9v-73h-187l-14 -49h38q26 0 44 -18.5t18 -44.5v-37q0 -26 -18 -44t-44 -18h-147v40q0 9 6.5 15.5t14.5 6.5h117q9 0 9 8v29
q0 4 -2.5 6.5t-6.5 2.5h-102l28 103h-84q-46 0 -85 23t-62 62t-23 85v411z" />
    <glyph glyph-name="D" unicode="D" horiz-adv-x="670" 
d="M79 17q-17 17 -17 41v635q0 24 17 41t41 17h321q46 0 85 -23t62 -62t23 -85v-411q0 -46 -23 -85t-62 -62t-85 -23h-321q-24 0 -41 17zM495 108.5q22 22.5 22 53.5v427q0 32 -22 54t-54 22h-266q-8 0 -13.5 -5.5t-5.5 -13.5v-541q0 -8 5.5 -13.5t13.5 -5.5h266
q32 0 54 22.5z" />
    <glyph glyph-name="Eth" unicode="&#xd0;" horiz-adv-x="684" 
d="M96 17q-17 17 -17 41v274h-64v69q0 5 4 9t9 4h51v279q0 24 17 41t41 17h321q50 0 89 -22.5t60 -61.5t21 -86v-411q0 -46 -23 -85t-62 -62t-85 -23h-321q-24 0 -41 17zM301 336q-4 -4 -9 -4h-119v-227q0 -8 5.5 -13.5t13.5 -5.5h266q32 0 54 22.5t22 53.5v427q0 32 -22 54
t-54 22h-266q-8 0 -13.5 -5.5t-5.5 -13.5v-232h132v-69q0 -5 -4 -9z" />
    <glyph glyph-name="Dcroat" unicode="&#x110;" horiz-adv-x="697" 
d="M546.5 728q39.5 -23 62.5 -62t23 -85v-411q0 -46 -23 -85t-62.5 -62t-85.5 -23h-321q-24 0 -41 17t-17 41v280h-66v62q0 5 4 9t9 4h53v280q0 24 17 41t41 17h321q46 0 85.5 -23zM538 589q0 31 -22.5 53.5t-54.5 22.5h-266q-8 0 -13.5 -5.5t-5.5 -13.5v-233h187v-62
q0 -5 -3.5 -9t-9.5 -4h-174v-233q0 -8 5.5 -13.5t13.5 -5.5h266q32 0 54.5 22.5t22.5 53.5v427z" />
    <glyph glyph-name="E" unicode="E" horiz-adv-x="599" 
d="M176.5 643q-22.5 -22 -22.5 -54v-190q8 9 21 14.5t28 5.5h329v-73q0 -5 -4 -9t-9 -4h-365v-171q0 -31 22.5 -53.5t53.5 -22.5h324q5 0 9 -4t4 -9v-73h-337q-46 0 -85 23t-62 62t-23 85v411q0 46 23 85t62 62t85 23h337v-73q0 -5 -4 -9t-9 -4h-324q-31 0 -53.5 -22z" />
    <glyph glyph-name="Eacute" unicode="&#xc9;" horiz-adv-x="594" 
d="M377.5 816q-5.5 -3 -10.5 -3h-71l43 101q2 5 7 8.5t10 3.5h71l-42 -102q-2 -5 -7.5 -8zM171.5 643q-22.5 -22 -22.5 -54v-190q8 9 21 14.5t28 5.5h329v-73q0 -5 -4 -9t-9 -4h-365v-171q0 -31 22.5 -53.5t53.5 -22.5h324q5 0 9 -4t4 -9v-73h-337q-46 0 -85 23t-62 62
t-23 85v411q0 46 23 85t62 62t85 23h337v-73q0 -5 -4 -9t-9 -4h-324q-31 0 -53.5 -22z" />
    <glyph glyph-name="Ecircumflex" unicode="&#xca;" horiz-adv-x="594" 
d="M388 928.5q7 -4.5 11 -9.5l106 -108h-79q-10 0 -17.5 2.5t-19.5 18.5l-49 48l-49 -50q-11 -13 -18 -16.5t-11.5 -3t-6.5 0.5h-79l106 108q4 6 11 10t13 4h69q6 0 13 -4.5zM171.5 643q-22.5 -22 -22.5 -54v-190q8 9 21 14.5t28 5.5h329v-73q0 -5 -4 -9t-9 -4h-365v-171
q0 -31 22.5 -53.5t53.5 -22.5h324q5 0 9 -4t4 -9v-73h-337q-46 0 -85 23t-62 62t-23 85v411q0 46 23 85t62 62t85 23h337v-73q0 -5 -4 -9t-9 -4h-324q-31 0 -53.5 -22z" />
    <glyph glyph-name="Edieresis" unicode="&#xcb;" horiz-adv-x="594" 
d="M204 827q-4 4 -4 9v73h74q6 0 9.5 -4t3.5 -10v-72h-74q-5 0 -9 4zM400 827q-4 4 -4 9v73h74q6 0 10 -4t4 -10v-72h-74q-6 0 -10 4zM171.5 643q-22.5 -22 -22.5 -54v-190q8 9 21 14.5t28 5.5h329v-73q0 -5 -4 -9t-9 -4h-365v-171q0 -31 22.5 -53.5t53.5 -22.5h324
q5 0 9 -4t4 -9v-73h-337q-46 0 -85 23t-62 62t-23 85v411q0 46 23 85t62 62t85 23h337v-73q0 -5 -4 -9t-9 -4h-324q-31 0 -53.5 -22z" />
    <glyph glyph-name="Egrave" unicode="&#xc8;" horiz-adv-x="594" 
d="M303 816.5q-5 3.5 -7 7.5l-51 102h80q5 0 10 -3.5t7 -8.5l43 -101h-72q-5 0 -10 3.5zM171.5 643q-22.5 -22 -22.5 -54v-190q8 9 21 14.5t28 5.5h329v-73q0 -5 -4 -9t-9 -4h-365v-171q0 -31 22.5 -53.5t53.5 -22.5h324q5 0 9 -4t4 -9v-73h-337q-46 0 -85 23t-62 62t-23 85
v411q0 46 23 85t62 62t85 23h337v-73q0 -5 -4 -9t-9 -4h-324q-31 0 -53.5 -22z" />
    <glyph glyph-name="Eogonek" unicode="&#x118;" horiz-adv-x="600" 
d="M176.5 643q-22.5 -22 -22.5 -54v-190q8 9 21 14.5t28 5.5h329v-73q0 -5 -4 -9t-9 -4h-365v-171q0 -31 22.5 -53.5t53.5 -22.5h325q5 0 9 -4t4 -9v-73h-59l-99 -103v-25q0 -8 8 -8h68q8 0 13.5 -5.5t5.5 -13.5v-41h-99q-24 0 -41 17t-17 41v53l94 85h-212q-46 0 -85 23
t-62 62t-23 85v411q0 46 23 85t62 62t85 23h338v-73q0 -5 -4 -9t-9 -4h-325q-31 0 -53.5 -22z" />
    <glyph glyph-name="F" unicode="F" horiz-adv-x="592" 
d="M568 751v-73q0 -5 -4 -9t-9 -4h-324q-31 0 -53.5 -22t-22.5 -54v-192q8 10 21.5 16t28.5 6h340v-73q0 -5 -4 -9t-9 -4h-377v-320q0 -5 -4 -9t-9 -4h-81v581q0 46 23 85t62 62t85 23h337z" />
    <glyph glyph-name="G" unicode="G" horiz-adv-x="666" 
d="M146 19q-39 23 -62 62t-23 85v419q0 46 23 85t62 62t85 23h343v-73q0 -5 -4 -9t-10 -4h-329q-31 0 -53.5 -22t-22.5 -54v-435q0 -31 22.5 -53.5t53.5 -22.5h207q32 0 58.5 22.5t26.5 53.5v181h-182q-5 0 -9 4t-4 9v73h267q5 0 9 -4t4 -9v-256q0 -76 -48 -118t-122 -42
h-207q-46 0 -85 23z" />
    <glyph glyph-name="H" unicode="H" horiz-adv-x="668" 
d="M607 751v-751h-81q-5 0 -9 4t-4 9v320h-359v-320q0 -5 -4 -9t-9 -4h-81v751h81q5 0 9 -4t4 -9v-319h359v319q0 5 4 9t9 4h81z" />
    <glyph glyph-name="I" unicode="I" horiz-adv-x="251" 
d="M85 4q-4 4 -4 9v738h81q5 0 9 -4t4 -9v-738h-81q-5 0 -9 4z" />
    <glyph glyph-name="Iacute" unicode="&#xcd;" horiz-adv-x="224" 
d="M147.5 815q-5.5 -3 -10.5 -3h-71l43 101q2 5 7 8.5t10 3.5h71l-42 -102q-2 -5 -7.5 -8zM69 4q-4 4 -4 9v738h81q5 0 9 -4t4 -9v-738h-81q-5 0 -9 4z" />
    <glyph glyph-name="Icircumflex" unicode="&#xce;" horiz-adv-x="224" 
d="M148 931q6 -5 8 -10l81 -115h-60q-8 0 -13 3t-15 19l-37 52l-38 -53q-8 -15 -13.5 -18.5t-9.5 -3t-5 0.5h-60l81 115q3 6 8.5 10.5t9.5 4.5h53q4 0 10 -5zM69 4q-4 4 -4 9v738h81q5 0 9 -4t4 -9v-738h-81q-5 0 -9 4z" />
    <glyph glyph-name="Idieresis" unicode="&#xcf;" horiz-adv-x="224" 
d="M-22 829.5q-4 4.5 -4 9.5v78h77q6 0 10 -4.5t4 -10.5v-77h-77q-6 0 -10 4.5zM159 829.5q-4 4.5 -4 9.5v78h77q6 0 10 -4.5t4 -10.5v-77h-77q-6 0 -10 4.5zM69 4q-4 4 -4 9v738h81q5 0 9 -4t4 -9v-738h-81q-5 0 -9 4z" />
    <glyph glyph-name="Igrave" unicode="&#xcc;" horiz-adv-x="224" 
d="M72 834.5q-5 3.5 -7 7.5l-51 102h80q5 0 10 -3.5t7 -8.5l43 -101h-72q-5 0 -10 3.5zM69 4q-4 4 -4 9v738h81q5 0 9 -4t4 -9v-738h-81q-5 0 -9 4z" />
    <glyph glyph-name="J" unicode="J" horiz-adv-x="495" 
d="M28 4q-4 4 -4 9v72h241q31 0 53 22.5t22 53.5v504h-106q-5 0 -9 4t-4 9v72h213v-581q0 -46 -23 -84.5t-61.5 -61.5t-84.5 -23h-228q-5 0 -9 4z" />
    <glyph glyph-name="K" unicode="K" horiz-adv-x="669" 
d="M653 0h-90q-5 0 -11 3.5t-8 8.5l-142 321h-228q-7 0 -13 -5.5t-6 -13.5v-301q0 -5 -4 -9t-9 -4h-81v738q0 5 4 9t9 4h81v-353q8 9 21.5 15t28.5 6h211q32 0 54 22.5t22 53.5v243q0 5 4 9t10 4h81v-248q0 -48 -25 -88.5t-66 -61.5z" />
    <glyph glyph-name="L" unicode="L" horiz-adv-x="576" 
d="M145.5 23.5q-39.5 23.5 -62.5 63t-23 86.5v565q0 5 4 9t9 4h81v-587q0 -32 22.5 -55t54.5 -23h312q5 0 9 -4t4 -9v-73h-325q-46 0 -85.5 23.5z" />
    <glyph glyph-name="Lslash" unicode="&#x141;" horiz-adv-x="605" 
d="M576 82q4 -4 4 -9v-73h-325q-47 0 -86.5 23t-62.5 62.5t-23 86.5v170l-83 -62v72q0 5 3 11t8 9l72 55v311q0 5 4 9t9 4h82v-256l120 86v-72q0 -5 -3.5 -11.5t-7.5 -9.5l-109 -78v-246q0 -32 22.5 -55t54.5 -23h312q5 0 9 -4z" />
    <glyph glyph-name="M" unicode="M" horiz-adv-x="841" 
d="M158.5 745.5q7.5 -4.5 11.5 -11.5l249 -456l250 456q4 7 11.5 11.5t15.5 4.5h70q5 0 9 -3.5t4 -9.5v-736h-81q-5 0 -9 4t-4 9v584l-209 -397q-7 -12 -20 -12h-73q-13 0 -20 12l-209 397v-584q0 -5 -4 -9t-9 -4h-81v736q0 6 4 9.5t9 3.5h70q8 0 15.5 -4.5z" />
    <glyph glyph-name="N" unicode="N" horiz-adv-x="707" 
d="M556 279q-2 44 -4 69v390q0 5 4 9t9 4h81v-751h-87q-5 0 -11 3.5t-8 8.5l-342 637q-4 7 -11.5 11.5t-15.5 4.5h-17v-652q0 -5 -4 -9t-9 -4h-81v738q0 5 4 9t9 4h114q24 0 49 -15t36 -36l204 -385l91 -179q-7 52 -11 143z" />
    <glyph glyph-name="Nacute" unicode="&#x143;" horiz-adv-x="707" 
d="M393 802.5q-5 -3.5 -10 -3.5h-72l68 108q2 4 7 7.5t10 3.5h67l-63 -107q-2 -5 -7 -8.5zM646 751v-750h-88q-5 0 -10.5 3t-8.5 8l-341 637q-4 7 -11.5 11.5t-15.5 4.5h-17v-651q0 -6 -4 -9.5t-9 -3.5h-81v737q0 5 4 9t9 4h114q24 0 49 -15t36 -36l280 -527v565q0 5 4 9
t9 4h81z" />
    <glyph glyph-name="Ntilde" unicode="&#xd1;" horiz-adv-x="707" 
d="M282.5 841.5q-4.5 -4.5 -11.5 -4.5h-41v73q0 14 10.5 24.5t25.5 10.5h42q7 0 16 -2.5t14 -5.5l55 -34q6 -4 13 -4h7q5 0 8 3.5t3 7.5v19q0 7 4.5 11.5t11.5 4.5h41v-73q0 -14 -10.5 -24.5t-25.5 -10.5h-43q-15 0 -29 8l-55 34q-8 4 -14 4h-6q-4 0 -7.5 -3t-3.5 -8v-19
q0 -7 -4.5 -11.5zM556 279q-2 44 -4 69v390q0 5 4 9t9 4h81v-751h-87q-5 0 -11 3.5t-8 8.5l-342 637q-4 7 -11.5 11.5t-15.5 4.5h-17v-652q0 -5 -4 -9t-9 -4h-81v738q0 5 4 9t9 4h114q24 0 49 -15t36 -36l204 -385l91 -179q-7 52 -11 143z" />
    <glyph glyph-name="O" unicode="O" horiz-adv-x="685" 
d="M144 19q-39 23 -62 62t-23 85v419q0 46 23 85t62 62t85 23h226q46 0 85 -23t62 -62t23 -85v-419q0 -46 -23 -85t-62 -62t-85 -23h-226q-46 0 -85 23zM175.5 647q-22.5 -22 -22.5 -54v-435q0 -31 22.5 -53.5t53.5 -22.5h226q32 0 54 22.5t22 53.5v435q0 32 -22 54t-54 22
h-226q-31 0 -53.5 -22z" />
    <glyph glyph-name="Oacute" unicode="&#xd3;" horiz-adv-x="685" 
d="M384.5 823q-5.5 -3 -10.5 -3h-71l43 101q2 5 7 8.5t10 3.5h71l-42 -102q-2 -5 -7.5 -8zM540 19q39 23 62 62t23 85v419q0 46 -23 85t-62 62t-85 23h-226q-46 0 -85 -23t-62 -62t-23 -85v-419q0 -46 23 -85t62 -62t85 -23h226q46 0 85 23zM455 669q32 0 54 -22t22 -54
v-435q0 -31 -22 -53.5t-54 -22.5h-226q-31 0 -53.5 22.5t-22.5 53.5v435q0 32 22.5 54t53.5 22h226z" />
    <glyph glyph-name="Ocircumflex" unicode="&#xd4;" horiz-adv-x="685" 
d="M394 932q6 -4 9 -9l95 -101h-70q-9 0 -15.5 3t-17.5 17l-44 45l-43 -47q-10 -12 -16.5 -15t-11 -3h-5.5h-71l95 101q3 5 9.5 9t11.5 4h62q6 0 12 -4zM540 19q39 23 62 62t23 85v419q0 46 -23 85t-62 62t-85 23h-226q-46 0 -85 -23t-62 -62t-23 -85v-419q0 -46 23 -85
t62 -62t85 -23h226q46 0 85 23zM455 669q32 0 54 -22t22 -54v-435q0 -31 -22 -53.5t-54 -22.5h-226q-31 0 -53.5 22.5t-22.5 53.5v435q0 32 22.5 54t53.5 22h226z" />
    <glyph glyph-name="Odieresis" unicode="&#xd6;" horiz-adv-x="685" 
d="M199 827.5q-4 4.5 -4 9.5v78h77q6 0 10 -4.5t4 -10.5v-77h-77q-6 0 -10 4.5zM403 827.5q-4 4.5 -4 9.5v78h77q6 0 10 -4.5t4 -10.5v-77h-77q-6 0 -10 4.5zM144 19q-39 23 -62 62t-23 85v419q0 46 23 85t62 62t85 23h226q46 0 85 -23t62 -62t23 -85v-419q0 -46 -23 -85
t-62 -62t-85 -23h-226q-46 0 -85 23zM175.5 647q-22.5 -22 -22.5 -54v-435q0 -31 22.5 -53.5t53.5 -22.5h226q32 0 54 22.5t22 53.5v435q0 32 -22 54t-54 22h-226q-31 0 -53.5 -22z" />
    <glyph glyph-name="Ograve" unicode="&#xd2;" horiz-adv-x="685" 
d="M312 824.5q-5 3.5 -7 7.5l-51 102h80q5 0 10 -3.5t7 -8.5l43 -101h-72q-5 0 -10 3.5zM540 19q39 23 62 62t23 85v419q0 46 -23 85t-62 62t-85 23h-226q-46 0 -85 -23t-62 -62t-23 -85v-419q0 -46 23 -85t62 -62t85 -23h226q46 0 85 23zM455 669q32 0 54 -22t22 -54v-435
q0 -31 -22 -53.5t-54 -22.5h-226q-31 0 -53.5 22.5t-22.5 53.5v435q0 32 22.5 54t53.5 22h226z" />
    <glyph glyph-name="Oslash" unicode="&#xd8;" horiz-adv-x="707" 
d="M699 637v-76q0 -7 -4 -14t-10 -11l-46 -30v-340q0 -46 -23 -85t-62 -62t-85 -23h-226q-63 0 -111 42t-57 104l-70 -49v73q0 7 4 14t9 11l55 39v355q0 46 23 85t62 62t85 23h226q70 0 119 -40.5t49 -117.5zM165 291l383 246v56q0 31 -22.5 53.5t-53.5 22.5h-231
q-31 0 -53.5 -22t-22.5 -54v-302zM548 445l-383 -243v-44q0 -31 22.5 -53.5t53.5 -22.5h231q31 0 53.5 22.5t22.5 53.5v287z" />
    <glyph glyph-name="Otilde" unicode="&#xd5;" horiz-adv-x="685" 
d="M269.5 824.5q-4.5 -4.5 -11.5 -4.5h-41v73q0 14 10.5 24.5t25.5 10.5h42q7 0 16 -2.5t14 -5.5l55 -34q6 -4 13 -4h7q5 0 8 3.5t3 7.5v19q0 7 4.5 11.5t11.5 4.5h41v-73q0 -14 -10.5 -24.5t-25.5 -10.5h-43q-15 0 -29 8l-55 34q-8 4 -14 4h-6q-4 0 -7.5 -3t-3.5 -8v-19
q0 -7 -4.5 -11.5zM540 19q39 23 62 62t23 85v419q0 46 -23 85t-62 62t-85 23h-226q-46 0 -85 -23t-62 -62t-23 -85v-419q0 -46 23 -85t62 -62t85 -23h226q46 0 85 23zM455 669q32 0 54 -22t22 -54v-435q0 -31 -22 -53.5t-54 -22.5h-226q-31 0 -53.5 22.5t-22.5 53.5v435
q0 32 22.5 54t53.5 22h226z" />
    <glyph glyph-name="OE" unicode="&#x152;" horiz-adv-x="1037" 
d="M615.5 643q-22.5 -22 -22.5 -54v-190q8 9 21 14.5t28 5.5h311v-73q0 -5 -4 -9t-9 -4h-347v-171q0 -31 22.5 -53.5t53.5 -22.5h306q5 0 9 -4t4 -9v-73h-319q-69 0 -118 52q-26 -27 -54 -41.5t-64 -14.5h-204q-46 0 -85 23t-62 62t-23 85v419q0 46 23 85t62 62t85 23h204
q36 0 64 -14.5t54 -41.5q50 52 118 52h319v-73q0 -5 -4 -9t-9 -4h-306q-31 0 -53.5 -22zM509 593q0 32 -22 54t-54 22h-204q-31 0 -53.5 -22t-22.5 -54v-435q0 -31 22.5 -53.5t53.5 -22.5h204q32 0 54 22.5t22 53.5v435z" />
    <glyph glyph-name="P" unicode="P" horiz-adv-x="631" 
d="M516 728q39 -23 62 -62t23 -85v-99q0 -46 -23 -85t-62 -62t-85 -23h-219q-23 0 -39.5 11.5t-18.5 28.5v-339q0 -5 -4 -9t-9 -4h-81v693q0 24 17 41t41 17h313q46 0 85 -23zM507 589q0 32 -22 54t-54 22h-258q-8 0 -13.5 -5.5t-5.5 -13.5v-229q0 -7 6 -13t13 -6h1h257
q32 0 54 22.5t22 53.5v115z" />
    <glyph glyph-name="Thorn" unicode="&#xde;" horiz-adv-x="650" 
d="M156 746q4 -4 4 -9v-187q2 16 19 27.5t39 11.5h219q46 0 85 -23t62 -62t23 -85v-88q0 -46 -23 -85t-62 -62t-85 -23h-219q-22 0 -39 11t-19 27v-186q0 -5 -4 -9t-9 -4h-81v750h81q5 0 9 -4zM491 481q-22 22 -54 22h-258q-7 0 -13 -5.5t-6 -13.5v-218q0 -7 6 -13t13 -6
h258q32 0 54 22.5t22 53.5v104q0 32 -22 54z" />
    <glyph glyph-name="Q" unicode="Q" horiz-adv-x="688" 
d="M542 732q39 -23 62 -62t23 -85v-419q0 -57 -35 -102.5t-89 -60.5l35 -82h-70q-6 0 -11.5 3.5t-7.5 8.5l-27 63h-191q-46 0 -85 23t-62 62t-23 85v419q0 46 23 85t62 62t85 23h226q46 0 85 -23zM533 593q0 32 -22 54t-54 22h-226q-31 0 -53.5 -22t-22.5 -54v-435
q0 -31 22.5 -53.5t53.5 -22.5h153l-40 91h70q6 0 11.5 -3.5t7.5 -8.5l35 -78q27 4 46 25.5t19 49.5v435z" />
    <glyph glyph-name="R" unicode="R" horiz-adv-x="646" 
d="M154 13q0 -5 -4 -9t-9 -4h-81v693q0 24 17 41t41 17h314q73 0 121.5 -43.5t48.5 -117.5v-97q0 -62 -38 -100.5t-98 -54.5l160 -338h-87q-5 0 -10.5 3.5t-7.5 8.5l-152 321h-157q-46 0 -56 27h-2v-347zM432 419q32 0 54 22.5t22 53.5v94q0 32 -22 54t-54 22h-259
q-8 0 -13.5 -5.5t-5.5 -13.5v-208q0 -8 5.5 -13.5t13.5 -5.5h259z" />
    <glyph glyph-name="S" unicode="S" horiz-adv-x="636" 
d="M425 86q31 0 52.5 22t21.5 54v91q0 8 -5.5 15t-12.5 9l-384 128q-23 8 -39 30t-16 46v119q0 69 48.5 110t121.5 41h356v-73q0 -5 -3.5 -9t-9.5 -4h-343q-32 0 -54.5 -19t-22.5 -50v-97q0 -8 5 -15.5t13 -9.5l384 -127q22 -7 37 -30t15 -47v-107q0 -46 -21.5 -83.5
t-59 -58.5t-83.5 -21h-383v73q0 6 4 9.5t9 3.5h370z" />
    <glyph glyph-name="Sacute" unicode="&#x15a;" horiz-adv-x="655" 
d="M388 822.5q-5 -3.5 -10 -3.5h-71l42 102q2 5 7 8t10 3h71l-42 -101q-2 -5 -7 -8.5zM592 317.5q16 -22.5 16 -46.5v-100q0 -46 -23 -85t-62 -62t-85 -23h-396v72q0 6 4 10t9 4h383q32 0 54 22.5t22 53.5v90q0 7 -5 14.5t-12 9.5l-386 128q-23 8 -39 30t-16 46v100
q0 46 23 85t62 62t85 23h362v-73q0 -5 -4 -9t-9 -4h-349q-31 0 -53.5 -22t-22.5 -54v-90q0 -8 5 -15.5t13 -9.5l385 -127q23 -7 39 -29.5z" />
    <glyph glyph-name="Scaron" unicode="&#x160;" horiz-adv-x="636" 
d="M278.5 822q-6.5 4 -10.5 10l-101 97h75q10 0 16.5 -2.5t18.5 -16.5l47 -43l46 45q11 12 18 14.5t12 2.5h6h75l-102 -97q-3 -5 -9.5 -9.5t-12.5 -4.5h-66q-6 0 -12.5 4zM46 82.5q-4 -3.5 -4 -9.5v-73h383q46 0 83.5 21t59 58.5t21.5 83.5v107q0 24 -15 47t-37 30l-384 127
q-8 2 -13 9.5t-5 15.5v97q0 31 22.5 50t54.5 19h343q6 0 9.5 4t3.5 9v73h-356q-73 0 -121.5 -41t-48.5 -110v-119q0 -24 16 -46t39 -30l384 -128q7 -2 12.5 -9t5.5 -15v-91q0 -32 -21.5 -54t-52.5 -22h-370q-5 0 -9 -3.5z" />
    <glyph glyph-name="T" unicode="T" horiz-adv-x="580" 
d="M563 751v-73q0 -5 -4 -9t-9 -4h-214v-652q0 -5 -3.5 -9t-9.5 -4h-81v665h-224v73q0 5 4 9t9 4h532z" />
    <glyph glyph-name="U" unicode="U" horiz-adv-x="689" 
d="M146 19q-39 23 -62 62t-23 85v585h81q5 0 9 -4t4 -9v-580q0 -31 22.5 -53.5t53.5 -22.5h226q32 0 54 22.5t22 53.5v580q0 5 4 9t9 4h81v-585q0 -46 -23 -85t-62 -62t-85 -23h-226q-46 0 -85 23z" />
    <glyph glyph-name="Uacute" unicode="&#xda;" horiz-adv-x="689" 
d="M378.5 796q-5.5 -3 -10.5 -3h-71l43 101q2 5 7 8.5t10 3.5h71l-42 -102q-2 -5 -7.5 -8zM457 -4q46 0 85 23t62 62t23 85v585h-81q-5 0 -9 -4t-4 -9v-580q0 -31 -22 -53.5t-54 -22.5h-226q-31 0 -53.5 22.5t-22.5 53.5v580q0 5 -4 9t-9 4h-81v-585q0 -46 23 -85t62 -62
t85 -23h226z" />
    <glyph glyph-name="Ucircumflex" unicode="&#xdb;" horiz-adv-x="689" 
d="M384.5 915.5q6.5 -4.5 10.5 -10.5l98 -106h-73q-9 0 -15.5 3t-18.5 18l-45 47l-46 -49q-10 -13 -17 -16t-11.5 -3h-5.5h-73l98 106q4 6 10.5 10.5t12.5 4.5h64q5 0 11.5 -4.5zM457 -4q46 0 85 23t62 62t23 85v585h-81q-5 0 -9 -4t-4 -9v-580q0 -31 -22 -53.5t-54 -22.5
h-226q-31 0 -53.5 22.5t-22.5 53.5v580q0 5 -4 9t-9 4h-81v-585q0 -46 23 -85t62 -62t85 -23h226z" />
    <glyph glyph-name="Udieresis" unicode="&#xdc;" horiz-adv-x="689" 
d="M207 818.5q-4 4.5 -4 9.5v78h77q6 0 10 -4.5t4 -10.5v-77h-77q-6 0 -10 4.5zM411 818.5q-4 4.5 -4 9.5v78h77q6 0 10 -4.5t4 -10.5v-77h-77q-6 0 -10 4.5zM146 19q-39 23 -62 62t-23 85v585h81q5 0 9 -4t4 -9v-580q0 -31 22.5 -53.5t53.5 -22.5h226q32 0 54 22.5t22 53.5
v580q0 5 4 9t9 4h81v-585q0 -46 -23 -85t-62 -62t-85 -23h-226q-46 0 -85 23z" />
    <glyph glyph-name="Ugrave" unicode="&#xd9;" horiz-adv-x="689" 
d="M318 807.5q-5 3.5 -7 7.5l-51 102h80q5 0 10 -3.5t7 -8.5l43 -101h-72q-5 0 -10 3.5zM457 -4q46 0 85 23t62 62t23 85v585h-81q-5 0 -9 -4t-4 -9v-580q0 -31 -22 -53.5t-54 -22.5h-226q-31 0 -53.5 22.5t-22.5 53.5v580q0 5 -4 9t-9 4h-81v-585q0 -46 23 -85t62 -62
t85 -23h226z" />
    <glyph glyph-name="V" unicode="V" horiz-adv-x="663" 
d="M548 739q2 5 7 8.5t10 3.5h87l-260 -738q-1 -5 -6.5 -9t-10.5 -4h-79q-5 0 -10.5 4t-6.5 9l-260 738h87q5 0 10 -3.5t7 -8.5l213 -612z" />
    <glyph glyph-name="W" unicode="W" horiz-adv-x="945" 
d="M885 751v-693q0 -24 -17 -41t-41 -17h-595q-47 0 -86.5 22t-62 60t-22.5 84v585h81q5 0 9 -4t4 -9v-580q0 -31 22 -51.5t55 -20.5h214q-20 18 -20 48v617h81q5 0 9 -4t4 -9v-633q0 -8 5.5 -13.5t13.5 -5.5h233q8 0 13.5 6t5.5 13v633q0 5 4 9t9 4h81z" />
    <glyph glyph-name="X" unicode="X" horiz-adv-x="637" 
d="M456 327l157 -327h-91q-5 0 -11 3.5t-8 8.5l-129 271q-5 8 -12.5 15.5t-14.5 7.5h-37q-8 0 -15.5 -7.5t-11.5 -15.5l-129 -271q-3 -5 -8.5 -8.5t-10.5 -3.5h-92l156 324q11 20 31 31q-19 9 -30 29l-177 367h90q6 0 11.5 -3.5t7.5 -8.5l151 -311q4 -9 12 -18t15 -9h37
q7 0 14.5 8.5t12.5 18.5l150 311q2 5 7.5 8.5t10.5 3.5h90l-178 -373q-11 -16 -27 -23q18 -9 29 -28z" />
    <glyph glyph-name="Y" unicode="Y" horiz-adv-x="681" 
d="M660 751l-153 -389q-9 -25 -28 -41t-46 -16h-45v-292q0 -5 -4 -9t-9 -4h-82v305l-40 1q-30 0 -50 15.5t-29 40.5l-153 389h88q5 0 10.5 -3.5t7.5 -8.5l125 -327q3 -7 10.5 -12.5t15.5 -5.5h125q8 0 15.5 5.5t10.5 12.5l125 327q2 5 7.5 8.5t10.5 3.5h88z" />
    <glyph glyph-name="Yacute" unicode="&#xdd;" horiz-adv-x="681" 
d="M374.5 795q-5.5 -3 -10.5 -3h-71l43 101q2 5 7 8.5t10 3.5h71l-42 -102q-2 -5 -7.5 -8zM660 751l-153 -389q-9 -25 -28 -41t-46 -16h-45v-292q0 -5 -4 -9t-9 -4h-82v305l-40 1q-30 0 -50 15.5t-29 40.5l-153 389h88q5 0 10.5 -3.5t7.5 -8.5l125 -327q3 -7 10.5 -12.5
t15.5 -5.5h125q8 0 15.5 5.5t10.5 12.5l125 327q2 5 7.5 8.5t10.5 3.5h88z" />
    <glyph glyph-name="Ydieresis" unicode="&#x178;" horiz-adv-x="681" 
d="M195 819.5q-4 4.5 -4 9.5v78h77q6 0 10 -4.5t4 -10.5v-77h-77q-6 0 -10 4.5zM399 819.5q-4 4.5 -4 9.5v78h77q6 0 10 -4.5t4 -10.5v-77h-77q-6 0 -10 4.5zM660 751l-153 -389q-9 -25 -28 -41t-46 -16h-45v-292q0 -5 -4 -9t-9 -4h-82v305l-40 1q-30 0 -50 15.5t-29 40.5
l-153 389h88q5 0 10.5 -3.5t7.5 -8.5l125 -327q3 -7 10.5 -12.5t15.5 -5.5h125q8 0 15.5 5.5t10.5 12.5l125 327q2 5 7.5 8.5t10.5 3.5h88z" />
    <glyph glyph-name="Z" unicode="Z" horiz-adv-x="683" 
d="M69 665v73q0 5 4 9t9 4h545q5 0 9 -4t4 -9v-60q0 -22 -14 -36l-474 -556h488v-73q0 -5 -4 -9t-9 -4h-576q-5 0 -9 4t-4 9v50q0 20 13 36l482 566h-464z" />
    <glyph glyph-name="Zacute" unicode="&#x179;" horiz-adv-x="683" 
d="M379 826q-6 -4 -12 -4h-71l50 122q1 5 7 9t12 4h82l-61 -121q-1 -6 -7 -10zM626 642l-469 -556h482v-73q0 -5 -3.5 -9t-9.5 -4h-575q-5 0 -9 4t-4 9v50q0 20 13 36l479 566h-461v73q0 5 4 9t9 4h544q6 0 9.5 -4t3.5 -9v-60q0 -21 -13 -36z" />
    <glyph glyph-name="Zcaron" unicode="&#x17d;" horiz-adv-x="683" 
d="M320.5 824q-6.5 4 -10.5 9l-98 94h73q10 0 16.5 -2.5t17.5 -15.5l46 -42l45 43q11 12 17.5 14.5t11 2.5h5.5h73l-98 -94q-4 -5 -10.5 -9t-11.5 -4h-64q-6 0 -12.5 4zM51 99q-13 -16 -13 -36v-50q0 -5 4 -9t9 -4h576q5 0 9 4t4 9v73h-488l474 556q14 14 14 36v60q0 5 -4 9
t-9 4h-545q-5 0 -9 -4t-4 -9v-73h464z" />
    <glyph glyph-name="Zdotaccent" unicode="&#x17b;" horiz-adv-x="682" 
d="M317 834.5q-6 6.5 -6 14.5v77h77q8 0 14.5 -6t6.5 -15v-77h-78q-8 0 -14 6.5zM626 642l-469 -556h482v-73q0 -5 -3.5 -9t-9.5 -4h-575q-5 0 -9 4t-4 9v50q0 20 13 36l479 566h-461v73q0 5 4 9t9 4h544q6 0 9.5 -4t3.5 -9v-60q0 -21 -13 -36z" />
    <glyph glyph-name="a" unicode="a" horiz-adv-x="512" 
d="M411.5 463q41.5 -37 41.5 -103v-328q0 -13 -9 -22.5t-23 -9.5h-234q-40 0 -73.5 19.5t-53 53t-19.5 73.5v31q0 40 19.5 73.5t53 53t73.5 19.5h169q5 0 8 3.5t3 7.5v25q0 25 -16 42t-44 17h-199q-4 0 -7.5 3.5t-3.5 7.5v71h210q63 0 104.5 -37zM145 102q17 -17 42 -17h170
q4 0 7 3t3 8v159q-7 -13 -26 -15h-154q-25 0 -42 -17t-17 -42v-37q0 -25 17 -42z" />
    <glyph glyph-name="aacute" unicode="&#xe1;" horiz-adv-x="512" 
d="M283.5 610q-5.5 -3 -10.5 -3h-71l43 101q2 5 7 8.5t10 3.5h71l-42 -102q-2 -5 -7.5 -8zM411.5 463q41.5 -37 41.5 -103v-328q0 -13 -9 -22.5t-23 -9.5h-234q-40 0 -73.5 19.5t-53 53t-19.5 73.5v31q0 40 19.5 73.5t53 53t73.5 19.5h169q5 0 8 3.5t3 7.5v25q0 25 -16 42
t-44 17h-199q-4 0 -7.5 3.5t-3.5 7.5v71h210q63 0 104.5 -37zM145 102q17 -17 42 -17h170q4 0 7 3t3 8v159q-7 -13 -26 -15h-154q-25 0 -42 -17t-17 -42v-37q0 -25 17 -42z" />
    <glyph glyph-name="acircumflex" unicode="&#xe2;" horiz-adv-x="512" 
d="M293.5 708.5q5.5 -4.5 8.5 -10.5l84 -109h-62q-8 0 -13.5 3t-15.5 18l-39 49l-38 -50q-10 -15 -15.5 -17.5t-13.5 -2.5h-62l83 109q3 6 8.5 10.5t10.5 4.5h54q5 0 10.5 -4.5zM411.5 463q41.5 -37 41.5 -103v-328q0 -13 -9 -22.5t-23 -9.5h-234q-40 0 -73.5 19.5t-53 53
t-19.5 73.5v31q0 40 19.5 73.5t53 53t73.5 19.5h169q5 0 8 3.5t3 7.5v25q0 25 -16 42t-44 17h-199q-4 0 -7.5 3.5t-3.5 7.5v71h210q63 0 104.5 -37zM145 102q17 -17 42 -17h170q4 0 7 3t3 8v159q-7 -13 -26 -15h-154q-25 0 -42 -17t-17 -42v-37q0 -25 17 -42z" />
    <glyph glyph-name="adieresis" unicode="&#xe4;" horiz-adv-x="512" 
d="M134.5 619q-3.5 4 -3.5 9v77h69q6 0 9.5 -4.5t3.5 -10.5v-75h-70q-5 0 -8.5 4zM319.5 619q-3.5 4 -3.5 9v77h70q5 0 9 -4.5t4 -10.5v-75h-70q-6 0 -9.5 4zM411.5 463q41.5 -37 41.5 -103v-328q0 -13 -9 -22.5t-23 -9.5h-234q-40 0 -73.5 19.5t-53 53t-19.5 73.5v31
q0 40 19.5 73.5t53 53t73.5 19.5h169q5 0 8 3.5t3 7.5v25q0 25 -16 42t-44 17h-199q-4 0 -7.5 3.5t-3.5 7.5v71h210q63 0 104.5 -37zM145 102q17 -17 42 -17h170q4 0 7 3t3 8v159q-7 -13 -26 -15h-154q-25 0 -42 -17t-17 -42v-37q0 -25 17 -42z" />
    <glyph glyph-name="agrave" unicode="&#xe0;" horiz-adv-x="512" 
d="M234 612.5q-5 3.5 -7 7.5l-51 102h80q5 0 10 -3.5t7 -8.5l43 -101h-72q-5 0 -10 3.5zM411.5 463q41.5 -37 41.5 -103v-328q0 -13 -9 -22.5t-23 -9.5h-234q-40 0 -73.5 19.5t-53 53t-19.5 73.5v31q0 40 19.5 73.5t53 53t73.5 19.5h169q5 0 8 3.5t3 7.5v25q0 25 -16 42
t-44 17h-199q-4 0 -7.5 3.5t-3.5 7.5v71h210q63 0 104.5 -37zM145 102q17 -17 42 -17h170q4 0 7 3t3 8v159q-7 -13 -26 -15h-154q-25 0 -42 -17t-17 -42v-37q0 -25 17 -42z" />
    <glyph glyph-name="aogonek" unicode="&#x105;" horiz-adv-x="512" 
d="M354 -93v-30q0 -3 2 -5.5t6 -2.5h72q8 0 13.5 -5.5t5.5 -13.5v-37h-99q-24 0 -41 17t-17 41v50l93 79h-202q-40 0 -73.5 19.5t-53 53t-19.5 73.5v31q0 40 19.5 73.5t53 53t73.5 19.5h169q5 0 8 3.5t3 7.5v25q0 24 -17.5 41.5t-42.5 17.5h-212q-4 0 -7.5 3.5t-3.5 7.5v71
h223q40 0 73.5 -19.5t53 -53t19.5 -73.5v-354zM367 255q-9 -13 -27 -15h-153q-25 0 -42 -17t-17 -42v-37q0 -25 17 -42t42 -17h169q5 0 8 3.5t3 7.5v159z" />
    <glyph glyph-name="aring" unicode="&#xe5;" horiz-adv-x="512" 
d="M191 593q-20 17 -20 41v44q0 24 20 41.5t48 17.5h50q28 0 48 -17.5t20 -41.5v-44q0 -24 -20 -41t-48 -17h-50q-28 0 -48 17zM234 630.5q4 -3.5 9 -3.5h42q5 0 9 3.5t4 7.5v36q0 4 -4 7.5t-9 3.5h-42q-5 0 -9 -3.5t-4 -7.5v-36q0 -4 4 -7.5zM411.5 463q41.5 -37 41.5 -103
v-328q0 -13 -9 -22.5t-23 -9.5h-234q-40 0 -73.5 19.5t-53 53t-19.5 73.5v31q0 40 19.5 73.5t53 53t73.5 19.5h169q5 0 8 3.5t3 7.5v25q0 25 -16 42t-44 17h-199q-4 0 -7.5 3.5t-3.5 7.5v71h210q63 0 104.5 -37zM145 102q17 -17 42 -17h170q4 0 7 3t3 8v159q-7 -13 -26 -15
h-154q-25 0 -42 -17t-17 -42v-37q0 -25 17 -42z" />
    <glyph glyph-name="atilde" unicode="&#xe3;" horiz-adv-x="512" 
d="M187 615q-4 -4 -11 -4h-38v68q0 13 10 22.5t24 9.5h39q12 0 28 -7q3 -3 51 -32q6 -4 12 -4h6q4 0 7 3t3 8v17q0 6 4.5 10.5t10.5 4.5h38v-68q0 -13 -9.5 -22.5t-23.5 -9.5h-40q-11 0 -27 7l-51 32q-8 4 -13 4h-5q-4 0 -7.5 -3t-3.5 -8v-17q0 -7 -4 -11zM411.5 463
q41.5 -37 41.5 -103v-328q0 -13 -9 -22.5t-23 -9.5h-234q-40 0 -73.5 19.5t-53 53t-19.5 73.5v31q0 40 19.5 73.5t53 53t73.5 19.5h169q5 0 8 3.5t3 7.5v25q0 25 -16 42t-44 17h-199q-4 0 -7.5 3.5t-3.5 7.5v71h210q63 0 104.5 -37zM145 102q17 -17 42 -17h170q4 0 7 3t3 8
v159q-7 -13 -26 -15h-154q-25 0 -42 -17t-17 -42v-37q0 -25 17 -42z" />
    <glyph glyph-name="ae" unicode="&#xe6;" horiz-adv-x="871" 
d="M779 80q3 -3 3 -7v-72h-263q-58 0 -102 42q-43 -43 -96 -43h-120q-40 0 -73.5 19.5t-53 53.5t-19.5 73v2q0 40 19.5 73.5t53 53t73.5 19.5h180v65q0 24 -17.5 41.5t-42.5 17.5h-212q-4 0 -7.5 3.5t-3.5 7.5v71h223q54 0 96 -42q43 43 102 43h134q40 0 73.5 -19.5t53 -53
t19.5 -73.5v-111q0 -13 -9 -22.5t-22 -9.5h-308v-69q0 -25 17.5 -42.5t41.5 -17.5h252q5 0 8 -3zM477.5 401q-17.5 -17 -17.5 -42v-64h242q5 0 8 3.5t3 7.5v53q0 25 -17.5 42t-42.5 17h-134q-24 0 -41.5 -17zM381 211h-180q-25 0 -42 -17t-17 -42v-10q0 -25 17 -42t42 -17
h120q25 0 42.5 17t17.5 42v69z" />
    <glyph glyph-name="b" unicode="b" horiz-adv-x="528" 
d="M403 480.5q34 -19.5 53.5 -53t19.5 -73.5v-208q0 -40 -19.5 -73.5t-53.5 -53t-73 -19.5h-238q-13 0 -22.5 9.5t-9.5 22.5v718h76q5 0 8 -3t3 -8v-271q10 14 28 23t40 9h115q39 0 73 -19.5zM372 400q-17 17 -42 17h-135q-20 -2 -33.5 -16.5t-14.5 -34.5v-273q0 -4 3 -7
t8 -3h172q25 0 42 17t17 42v216q0 25 -17 42z" />
    <glyph glyph-name="c" unicode="c" horiz-adv-x="439" 
d="M156 399.5q-17 -17.5 -17 -42.5v-215q0 -25 17 -42t42 -17h177q5 0 8 -3t3 -8v-72h-188q-39 0 -73 19.5t-53.5 53t-19.5 73.5v207q0 40 19.5 73.5t53.5 53t73 19.5h188v-72q0 -4 -3 -7t-8 -3h-177q-25 0 -42 -17.5z" />
    <glyph glyph-name="cacute" unicode="&#x107;" horiz-adv-x="439" 
d="M280 592q-6 -3 -11 -3h-68l52 102q1 4 6.5 7.5t11.5 3.5h68l-52 -103q-1 -4 -7 -7zM156 399.5q-17 -17.5 -17 -42.5v-215q0 -25 17 -42t42 -17h177q5 0 8 -3t3 -8v-72h-188q-40 0 -73.5 19.5t-53 53t-19.5 73.5v207q0 40 19.5 73.5t53 53t73.5 19.5h188v-72q0 -4 -3 -7
t-8 -3h-177q-25 0 -42 -17.5z" />
    <glyph glyph-name="ccedilla" unicode="&#xe7;" horiz-adv-x="439" 
d="M156 399.5q-17 -17.5 -17 -42.5v-215q0 -25 17 -42t42 -17h177q5 0 8 -3t3 -8v-72h-117l-9 -41h35q24 0 41 -17t17 -41v-31q0 -23 -17 -40.5t-41 -17.5h-128v31q0 8 5.5 13.5t13.5 5.5h109q4 0 6 2.5t2 5.5v34q0 3 -2 5.5t-6 2.5h-95l23 88h-25q-40 0 -73.5 19.5t-53 53
t-19.5 73.5v207q0 40 19.5 73.5t53 53t73.5 19.5h188v-72q0 -4 -3 -7t-8 -3h-177q-25 0 -42 -17.5z" />
    <glyph glyph-name="d" unicode="d" horiz-adv-x="529" 
d="M71 427.5q19 33.5 52 53t73 19.5h116q23 0 41 -9t28 -23v271q0 5 3.5 8t7.5 3h76v-718q0 -13 -9 -22.5t-23 -9.5h-238q-40 0 -73.5 19.5t-53 53t-19.5 73.5v208q0 40 19 73.5zM156 100q17 -17 42 -17h172q5 0 8 3t3 7v273q-1 20 -15 34.5t-33 16.5h-135q-25 0 -42 -17
t-17 -42v-216q0 -25 17 -42z" />
    <glyph glyph-name="eth" unicode="&#xf0;" horiz-adv-x="532" 
d="M234 628l-83 125h91l55 -85l64 42l28 -40l-66 -43l128 -194q27 -38 27 -84v-210q0 -40 -20 -73.5t-53.5 -53t-73.5 -19.5h-132q-40 0 -73.5 19.5t-53 53t-19.5 73.5v210q0 39 19.5 73t53 53.5t73.5 19.5h125l-63 92l-59 -38l-28 40zM157 394.5q-17 -17.5 -17 -41.5v-218
q0 -25 17 -42.5t42 -17.5h132q25 0 42.5 17.5t17.5 42.5v218q0 24 -17.5 41.5t-42.5 17.5h-132q-25 0 -42 -17.5z" />
    <glyph glyph-name="dcroat" unicode="&#x111;" 
d="M80 427.5q19 33.5 52 53t73 19.5h116q23 0 41 -9t28 -23v131h-114v54q0 5 4 9t9 4h101v73q0 5 3.5 8t7.5 3h76v-84h71v-54q0 -5 -4 -9t-9 -4h-58v-567q0 -13 -9 -22.5t-23 -9.5h-238q-40 0 -73.5 19.5t-53 53t-19.5 73.5v208q0 40 19 73.5zM165 100q17 -17 42 -17h172
q5 0 8 3t3 7v273q-1 20 -15 34.5t-33 16.5h-135q-25 0 -42 -17t-17 -42v-216q0 -25 17 -42z" />
    <glyph glyph-name="e" unicode="e" 
d="M132.5 19.5q-33.5 19.5 -53 53t-19.5 73.5v212q0 67 41.5 104.5t104.5 37.5h134q63 0 104.5 -37.5t41.5 -104.5v-115q0 -15 -5 -23t-21 -8h-274q-25 0 -39 19v-89q0 -25 17 -42t42 -17h248q5 0 8 -3t3 -8v-72h-259q-40 0 -73.5 19.5zM163.5 403q-16.5 -15 -16.5 -44v-54
q0 -9 10 -11h233q5 0 8 3.5t3 7.5v54q0 59 -58 59h-137q-26 0 -42.5 -15z" />
    <glyph glyph-name="eacute" unicode="&#xe9;" 
d="M309.5 609q-5.5 -3 -10.5 -3h-71l43 101q2 5 7 8.5t10 3.5h71l-42 -102q-2 -5 -7.5 -8zM132.5 19.5q-33.5 19.5 -53 53t-19.5 73.5v212q0 67 41.5 104.5t104.5 37.5h134q63 0 104.5 -37.5t41.5 -104.5v-115q0 -15 -5 -23t-21 -8h-274q-25 0 -39 19v-89q0 -25 17 -42
t42 -17h248q5 0 8 -3t3 -8v-72h-259q-40 0 -73.5 19.5zM163.5 403q-16.5 -15 -16.5 -44v-54q0 -9 10 -11h233q5 0 8 3.5t3 7.5v54q0 59 -58 59h-137q-26 0 -42.5 -15z" />
    <glyph glyph-name="ecircumflex" unicode="&#xea;" 
d="M313 710.5q6 -4.5 9 -9.5l89 -102h-66q-8 0 -14.5 2.5t-16.5 16.5l-41 46l-40 -47q-9 -12 -15.5 -15t-10.5 -3h-5h-66l89 102q3 5 9 9.5t11 4.5h57q5 0 11 -4.5zM132.5 19.5q-33.5 19.5 -53 53t-19.5 73.5v212q0 67 41.5 104.5t104.5 37.5h134q63 0 104.5 -37.5
t41.5 -104.5v-115q0 -15 -5 -23t-21 -8h-274q-25 0 -39 19v-89q0 -25 17 -42t42 -17h248q5 0 8 -3t3 -8v-72h-259q-40 0 -73.5 19.5zM163.5 403q-16.5 -15 -16.5 -44v-54q0 -9 10 -11h233q5 0 8 3.5t3 7.5v54q0 59 -58 59h-137q-26 0 -42.5 -15z" />
    <glyph glyph-name="edieresis" unicode="&#xeb;" 
d="M146 615q-4 4 -4 9v77h73q5 0 9 -4.5t4 -10.5v-75h-73q-5 0 -9 4zM338 615q-4 4 -4 9v77h72q6 0 9.5 -4.5t3.5 -10.5v-75h-72q-5 0 -9 4zM132.5 19.5q-33.5 19.5 -53 53t-19.5 73.5v212q0 67 41.5 104.5t104.5 37.5h134q63 0 104.5 -37.5t41.5 -104.5v-115q0 -15 -5 -23
t-21 -8h-274q-25 0 -39 19v-89q0 -25 17 -42t42 -17h248q5 0 8 -3t3 -8v-72h-259q-40 0 -73.5 19.5zM163.5 403q-16.5 -15 -16.5 -44v-54q0 -9 10 -11h233q5 0 8 3.5t3 7.5v54q0 59 -58 59h-137q-26 0 -42.5 -15z" />
    <glyph glyph-name="egrave" unicode="&#xe8;" 
d="M246 606.5q-5 3.5 -7 7.5l-51 102h80q5 0 10 -3.5t7 -8.5l43 -101h-72q-5 0 -10 3.5zM132.5 19.5q-33.5 19.5 -53 53t-19.5 73.5v212q0 67 41.5 104.5t104.5 37.5h134q63 0 104.5 -37.5t41.5 -104.5v-115q0 -15 -5 -23t-21 -8h-274q-25 0 -39 19v-89q0 -25 17 -42t42 -17
h248q5 0 8 -3t3 -8v-72h-259q-40 0 -73.5 19.5zM163.5 403q-16.5 -15 -16.5 -44v-54q0 -9 10 -11h233q5 0 8 3.5t3 7.5v54q0 59 -58 59h-137q-26 0 -42.5 -15z" />
    <glyph glyph-name="eogonek" unicode="&#x119;" horiz-adv-x="540" 
d="M132.5 19.5q-33.5 19.5 -53 53t-19.5 73.5v212q0 67 41.5 104.5t104.5 37.5h134q63 0 104.5 -37.5t41.5 -104.5v-115q0 -15 -5 -23t-21 -8h-274q-25 0 -39 19v-89q0 -25 17 -42t42 -17h248q5 0 8 -3t3 -8v-72h-38l-74 -67v-30q0 -3 2.5 -5.5t5.5 -2.5h73q8 0 13.5 -6
t5.5 -13v-37h-100q-24 0 -41 17t-17 41v50l67 53h-156q-40 0 -73.5 19.5zM163.5 403q-16.5 -15 -16.5 -44v-54q0 -9 10 -11h233q5 0 8 3.5t3 7.5v54q0 59 -58 59h-137q-26 0 -42.5 -15z" />
    <glyph glyph-name="f" unicode="f" horiz-adv-x="320" 
d="M307 753v-72q0 -4 -3 -7.5t-8 -3.5h-90q-25 0 -42 -17t-17 -42v-129q8 15 27 15h98v-72q0 -4 -3 -7t-8 -3h-114v-404q0 -4 -3 -7.5t-8 -3.5h-76v607q0 40 19.5 73.5t53 53t73.5 19.5h101z" />
    <glyph glyph-name="g" unicode="g" horiz-adv-x="530" 
d="M384 40q-8 -15 -27.5 -27.5t-41.5 -12.5h-120q-67 0 -103.5 41.5t-36.5 104.5v213q0 62 38.5 102t107.5 40h238q13 0 22.5 -9.5t9.5 -22.5v-567q0 -40 -19.5 -73.5t-53.5 -53t-73 -19.5h-238v72q0 4 3.5 7.5t7.5 3.5h227q24 0 41.5 17t17.5 42v142zM142 142q0 -59 55 -59
h138q20 3 34 17.5t15 33.5v273q0 5 -3 8t-8 3h-172q-59 0 -59 -59v-217z" />
    <glyph glyph-name="h" unicode="h" horiz-adv-x="539" 
d="M61 750h76q5 0 8 -3t3 -8v-271q10 14 28 23t40 9h127q63 0 101 -36t38 -104v-360h-76q-4 0 -7.5 3.5t-3.5 7.5v347q0 25 -17 42t-42 17h-140q-20 -2 -33.5 -16.5t-14.5 -34.5v-366h-76q-4 0 -7.5 3.5t-3.5 7.5v739z" />
    <glyph glyph-name="i" unicode="i" horiz-adv-x="216" 
d="M147 721q3 -3 3 -8v-82h-76q-4 0 -7.5 3.5t-3.5 7.5v82h76q5 0 8 -3zM147 497q3 -3 3 -7v-490h-76q-4 0 -7.5 3.5t-3.5 7.5v489h76q5 0 8 -3z" />
    <glyph glyph-name="dotlessi" unicode="&#x131;" horiz-adv-x="216" 
d="M147 497q3 -3 3 -7v-490h-76q-4 0 -7.5 3.5t-3.5 7.5v489h76q5 0 8 -3z" />
    <glyph glyph-name="iacute" unicode="&#xed;" horiz-adv-x="236" 
d="M149 631.5q-5 -3.5 -10 -3.5h-67l41 112q5 14 16 14h67l-40 -114q-2 -5 -7 -8.5zM222 497q3 -3 3 -7v-490h-76q-4 0 -7.5 3.5t-3.5 7.5v489h76q5 0 8 -3z" />
    <glyph glyph-name="icircumflex" unicode="&#xee;" horiz-adv-x="237" 
d="M152.5 748.5q5.5 -4.5 8.5 -10.5l84 -116h-62q-8 0 -14 3t-16 19l-38 52l-39 -53q-9 -15 -14.5 -18.5t-9.5 -3t-5 0.5h-62l84 116q2 6 8 10.5t11 4.5h54q5 0 10.5 -4.5zM222 497q3 -3 3 -7v-490h-76q-4 0 -7.5 3.5t-3.5 7.5v489h76q5 0 8 -3z" />
    <glyph glyph-name="idieresis" unicode="&#xef;" horiz-adv-x="234" 
d="M-4 639.5q-4 4.5 -4 9.5v78h77q6 0 10 -4.5t4 -10.5v-77h-77q-6 0 -10 4.5zM157 639.5q-4 4.5 -4 9.5v78h77q6 0 10 -4.5t4 -10.5v-77h-77q-6 0 -10 4.5zM220 497q3 -3 3 -7v-490h-76q-4 0 -7.5 3.5t-3.5 7.5v489h76q5 0 8 -3z" />
    <glyph glyph-name="igrave" unicode="&#xec;" horiz-adv-x="234" 
d="M84 638.5q-5 3.5 -7 7.5l-47 106h75q4 0 9 -4t7 -9l40 -104h-68q-4 0 -9 3.5zM220 497q3 -3 3 -7v-490h-76q-4 0 -7.5 3.5t-3.5 7.5v489h76q5 0 8 -3z" />
    <glyph glyph-name="j" unicode="j" horiz-adv-x="215" 
d="M149 711q3 -3 3 -8v-80h-76q-4 0 -7.5 3.5t-3.5 7.5v80h76q5 0 8 -3zM-32 -244h38q39 0 73 19.5t53.5 53t19.5 73.5v588q0 4 -3 7t-8 3h-76v-602q0 -25 -17.5 -42t-41.5 -17h-27q-5 0 -8 -3.5t-3 -7.5v-72z" />
    <glyph glyph-name="k" unicode="k" horiz-adv-x="494" 
d="M479 0h-86q-11 0 -16 10l-98 197h-121q-4 0 -7.5 -3t-3.5 -8v-185q0 -4 -3 -7.5t-8 -3.5h-76v742h76q5 0 8 -3t3 -8v-459q9 17 27 17h123q25 0 42 17.5t17 42.5v140q0 5 3.5 8t7.5 3h76v-147q0 -41 -20.5 -75t-55.5 -53z" />
    <glyph glyph-name="l" unicode="l" horiz-adv-x="212" 
d="M144 747q3 -3 3 -8v-739h-76q-4 0 -7.5 3.5t-3.5 7.5v739h76q5 0 8 -3z" />
    <glyph glyph-name="lslash" unicode="&#x142;" horiz-adv-x="228" 
d="M234 511v-77q0 -5 -3 -11.5t-7 -9.5l-69 -48v-365h-76q-4 0 -7.5 3.5t-3.5 7.5v293l-72 -50v76q0 5 3 11t8 9l61 43v357h76q5 0 8 -3t3 -8v-284z" />
    <glyph glyph-name="m" unicode="m" horiz-adv-x="725" 
d="M593.5 480.5q33.5 -19.5 53 -53t19.5 -73.5v-354h-76q-4 0 -7.5 3.5t-3.5 7.5v348q0 24 -17 41.5t-42 17.5h-130q18 -11 18 -28v-390h-76q-4 0 -7.5 3.5t-3.5 7.5v396q0 5 -3 8t-8 3h-151q-8 0 -10 -9v-398q0 -4 -3 -7.5t-8 -3.5h-76v435q0 27 19 46t46 19h393
q40 0 73.5 -19.5z" />
    <glyph glyph-name="n" unicode="n" 
d="M412.5 480.5q33.5 -19.5 53 -53t19.5 -73.5v-354h-76q-4 0 -7.5 3.5t-3.5 7.5v348q0 24 -17 41.5t-42 17.5h-181q-4 0 -7.5 -3t-3.5 -8v-396q0 -4 -3 -7.5t-8 -3.5h-76v435q0 27 19 46t46 19h214q40 0 73.5 -19.5z" />
    <glyph glyph-name="nacute" unicode="&#x144;" 
d="M298 599q-5 -3 -10 -3h-65l49 115q2 5 7 8t10 3h65l-49 -115q-2 -5 -7 -8zM412 480.5q34 -19.5 53.5 -53t19.5 -73.5v-354h-76q-4 0 -7.5 3.5t-3.5 7.5v348q0 24 -17 41.5t-42 17.5h-192v-407q0 -4 -3 -7.5t-8 -3.5h-76v435q0 27 19 46t46 19h214q39 0 73 -19.5z" />
    <glyph glyph-name="ntilde" unicode="&#xf1;" 
d="M196.5 619.5q-4.5 -4.5 -11.5 -4.5h-41v73q0 14 10.5 24.5t25.5 10.5h42q7 0 16 -2.5t14 -5.5l55 -34q6 -4 13 -4h7q5 0 8 3.5t3 7.5v19q0 7 4.5 11.5t11.5 4.5h41v-73q0 -14 -10.5 -24.5t-25.5 -10.5h-43q-15 0 -29 8l-55 34q-8 4 -14 4h-6q-4 0 -7.5 -3t-3.5 -8v-19
q0 -7 -4.5 -11.5zM412.5 480.5q33.5 -19.5 53 -53t19.5 -73.5v-354h-76q-4 0 -7.5 3.5t-3.5 7.5v348q0 24 -17 41.5t-42 17.5h-181q-4 0 -7.5 -3t-3.5 -8v-396q0 -4 -3 -7.5t-8 -3.5h-76v435q0 27 19 46t46 19h214q40 0 73.5 -19.5z" />
    <glyph glyph-name="o" unicode="o" horiz-adv-x="544" 
d="M130.5 12.5q-33.5 19.5 -53 53t-19.5 73.5v222q0 39 19.5 73t53 53.5t73.5 19.5h132q40 0 73.5 -20t53.5 -53.5t20 -72.5v-222q0 -40 -20 -73.5t-53.5 -53t-73.5 -19.5h-132q-40 0 -73.5 19.5zM162 406.5q-17 -17.5 -17 -41.5v-230q0 -25 17 -42.5t42 -17.5h132
q25 0 42.5 17.5t17.5 42.5v230q0 24 -17.5 41.5t-42.5 17.5h-132q-25 0 -42 -17.5z" />
    <glyph glyph-name="oacute" unicode="&#xf3;" horiz-adv-x="544" 
d="M308.5 615q-5.5 -3 -10.5 -3h-71l43 101q2 5 7 8.5t10 3.5h71l-42 -102q-2 -5 -7.5 -8zM409.5 12.5q33.5 19.5 53.5 53t20 73.5v222q0 39 -20 72.5t-53.5 53.5t-73.5 20h-132q-40 0 -73.5 -19.5t-53 -53.5t-19.5 -73v-222q0 -40 19.5 -73.5t53 -53t73.5 -19.5h132
q40 0 73.5 19.5zM336 424q25 0 42.5 -17.5t17.5 -41.5v-230q0 -25 -17.5 -42.5t-42.5 -17.5h-132q-25 0 -42 17.5t-17 42.5v230q0 24 17 41.5t42 17.5h132z" />
    <glyph glyph-name="ocircumflex" unicode="&#xf4;" horiz-adv-x="544" 
d="M314 716.5q6 -4.5 9 -9.5l88 -103h-66h-5.5t-11 4.5t-13.5 14.5l-41 47l-40 -48q-9 -13 -15 -16t-10.5 -2.5t-5.5 0.5h-65l88 103q3 5 9 9.5t11 4.5h57q5 0 11 -4.5zM409.5 12.5q33.5 19.5 53.5 53t20 73.5v222q0 39 -20 72.5t-53.5 53.5t-73.5 20h-132
q-40 0 -73.5 -19.5t-53 -53.5t-19.5 -73v-222q0 -40 19.5 -73.5t53 -53t73.5 -19.5h132q40 0 73.5 19.5zM336 424q25 0 42.5 -17.5t17.5 -41.5v-230q0 -25 -17.5 -42.5t-42.5 -17.5h-132q-25 0 -42 17.5t-17 42.5v230q0 24 17 41.5t42 17.5h132z" />
    <glyph glyph-name="odieresis" unicode="&#xf6;" horiz-adv-x="544" 
d="M149 640q-4 4 -4 9v77h76q6 0 9.5 -4t3.5 -10v-76h-76q-5 0 -9 4zM324.5 640q-3.5 4 -3.5 9v77h76q5 0 9 -4.5t4 -9.5v-76h-76q-6 0 -9.5 4zM130.5 12.5q-33.5 19.5 -53 53t-19.5 73.5v222q0 39 19.5 73t53 53.5t73.5 19.5h132q40 0 73.5 -20t53.5 -53.5t20 -72.5v-222
q0 -40 -20 -73.5t-53.5 -53t-73.5 -19.5h-132q-40 0 -73.5 19.5zM162 406.5q-17 -17.5 -17 -41.5v-230q0 -25 17 -42.5t42 -17.5h132q25 0 42.5 17.5t17.5 42.5v230q0 24 -17.5 41.5t-42.5 17.5h-132q-25 0 -42 -17.5z" />
    <glyph glyph-name="ograve" unicode="&#xf2;" horiz-adv-x="544" 
d="M248 612.5q-5 3.5 -7 7.5l-51 102h80q5 0 10 -3.5t7 -8.5l43 -101h-72q-5 0 -10 3.5zM409.5 12.5q33.5 19.5 53.5 53t20 73.5v222q0 39 -20 72.5t-53.5 53.5t-73.5 20h-132q-40 0 -73.5 -19.5t-53 -53.5t-19.5 -73v-222q0 -40 19.5 -73.5t53 -53t73.5 -19.5h132
q40 0 73.5 19.5zM336 424q25 0 42.5 -17.5t17.5 -41.5v-230q0 -25 -17.5 -42.5t-42.5 -17.5h-132q-25 0 -42 17.5t-17 42.5v230q0 24 17 41.5t42 17.5h132z" />
    <glyph glyph-name="oslash" unicode="&#xf8;" horiz-adv-x="552" 
d="M545 454v-58q0 -5 -3 -11t-8 -9l-39 -25v-212q0 -40 -19.5 -73.5t-53 -53t-73.5 -19.5h-132q-45 0 -82 25.5t-53 65.5l-60 -38v57q0 5 3 11t8 9l38 25v213q0 39 20 72.5t53.5 53.5t72.5 20h132q46 0 82.5 -25.5t53.5 -66.5zM158 204l251 162q-1 24 -18 41t-42 17h-132
q-25 0 -42 -17.5t-17 -41.5v-161zM409 295l-251 -161q1 -24 18 -41t41 -17h132q25 0 42.5 17t17.5 42v160z" />
    <glyph glyph-name="otilde" unicode="&#xf5;" horiz-adv-x="544" 
d="M202 602.5q-4 -4.5 -11 -4.5h-39v75q0 14 10 25t24 11h40q7 0 15.5 -2.5t13.5 -6.5l52 -35q6 -4 13 -4h6q5 0 8 3.5t3 8.5v19q0 7 4 12t11 5h39v-75q0 -15 -10 -25.5t-24 -10.5h-41q-14 0 -28 8l-52 35q-8 4 -14 4h-5q-4 0 -7.5 -3t-3.5 -8v-20q0 -7 -4 -11.5z
M409.5 12.5q33.5 19.5 53.5 53t20 73.5v222q0 39 -20 72.5t-53.5 53.5t-73.5 20h-132q-40 0 -73.5 -19.5t-53 -53.5t-19.5 -73v-222q0 -40 19.5 -73.5t53 -53t73.5 -19.5h132q40 0 73.5 19.5zM336 424q25 0 42.5 -17.5t17.5 -41.5v-230q0 -25 -17.5 -42.5t-42.5 -17.5h-132
q-25 0 -42 17.5t-17 42.5v230q0 24 17 41.5t42 17.5h132z" />
    <glyph glyph-name="oe" unicode="&#x153;" horiz-adv-x="845" 
d="M761 81q3 -3 3 -8v-72h-248q-28 0 -50.5 11t-44.5 32q-41 -43 -98 -43h-115q-38 0 -71 19t-52 52t-19 71v216q0 38 19 71t52 52t71 19h115q56 0 99 -43q21 21 43.5 32t50.5 11h120q40 0 73.5 -19.5t53 -53t19.5 -73.5v-111q0 -13 -9.5 -22.5t-22.5 -9.5h-293v-69
q0 -25 17.5 -42t41.5 -17h237q5 0 8 -3zM380 363q0 24 -17 40.5t-40 16.5h-115q-24 0 -41 -16.5t-17 -40.5v-224q0 -23 17 -40t41 -17h115q23 0 40 17t17 40v224zM474.5 401q-17.5 -17 -17.5 -42v-64h228q4 0 7 3t3 8v53q0 25 -17 42t-42 17h-120q-24 0 -41.5 -17z" />
    <glyph glyph-name="p" unicode="p" horiz-adv-x="539" 
d="M459.5 68q-19.5 -32 -53 -50t-73.5 -18h-115q-22 0 -40 9.5t-28 22.5v-265q0 -5 -3 -8t-8 -3h-76v713q0 13 9.5 22t22.5 9h238q64 0 105 -35t41 -106v-218q0 -41 -19.5 -73zM392 359q0 59 -59 59h-172q-4 0 -7.5 -3t-3.5 -8v-273q2 -20 15.5 -34.5t32.5 -16.5h135
q24 0 41.5 17t17.5 42v217z" />
    <glyph glyph-name="thorn" unicode="&#xfe;" horiz-adv-x="553" 
d="M470 73.5q-20 -33.5 -53.5 -53.5t-72.5 -20h-125q-22 0 -40 9.5t-28 22.5v-265q0 -5 -3 -8t-8 -3h-76v988h76q5 0 8 -3t3 -8v-265q10 13 28 22.5t40 9.5h125q39 0 72.5 -20t53.5 -53.5t20 -72.5v-208q0 -39 -20 -72.5zM385.5 400q-17.5 17 -41.5 17h-145
q-19 -2 -32.5 -16.5t-15.5 -34.5v-232q2 -20 15.5 -34.5t32.5 -16.5h145q24 0 41.5 17t17.5 42v216q0 25 -17.5 42z" />
    <glyph glyph-name="q" unicode="q" horiz-adv-x="544" 
d="M102 465q41 35 105 35h238q13 0 22.5 -9t9.5 -22v-713h-76q-4 0 -7.5 3t-3.5 8v265q-10 -13 -28 -22.5t-40 -9.5h-115q-40 0 -73.5 18t-53 50t-19.5 73v218q0 71 41 106zM165.5 100q17.5 -17 41.5 -17h135q19 2 32.5 16.5t15.5 34.5v273q0 5 -3 8t-8 3h-172
q-59 0 -59 -59v-217q0 -25 17.5 -42z" />
    <glyph glyph-name="r" unicode="r" horiz-adv-x="362" 
d="M331 500v-72q0 -4 -3 -7.5t-8 -3.5h-125q-20 0 -33 -13t-15 -32v-372h-76q-4 0 -7.5 3.5t-3.5 7.5v489h76q5 0 8 -3t3 -7v-22q10 14 28 23t40 9h116z" />
    <glyph glyph-name="s" unicode="s" horiz-adv-x="540" 
d="M54 279.5q-8 9.5 -8 21.5v67q0 60 38 96t99 36h274v-71q0 -4 -3 -7.5t-8 -3.5h-263q-50 0 -50 -49v-29q0 -7 9 -11l309 -73q12 -2 19.5 -11.5t7.5 -21.5v-89q0 -63 -40 -98.5t-103 -35.5h-283v71q0 5 3.5 8t7.5 3h272q26 0 44 14t18 38v47q0 8 -9 10l-314 77
q-12 2 -20 11.5z" />
    <glyph glyph-name="sacute" unicode="&#x15b;" horiz-adv-x="535" 
d="M294 593q-5 -3 -10 -3h-65l49 115q2 5 7 8t10 3h65l-49 -115q-2 -5 -7 -8zM388 191q9 -2 9 -10v-47q0 -24 -18 -38t-44 -14h-272q-4 0 -7.5 -3t-3.5 -8v-71h283q63 0 103 35.5t40 98.5v89q0 12 -7.5 21.5t-19.5 11.5l-309 73q-9 4 -9 11v29q0 49 50 49h263q5 0 8 3.5
t3 7.5v71h-274q-61 0 -99 -36t-38 -96v-67q0 -12 8 -21.5t20 -11.5z" />
    <glyph glyph-name="scaron" unicode="&#x161;" horiz-adv-x="540" 
d="M232 615.5q-6 3.5 -10 8.5l-92 88h68q9 0 15.5 -2.5t17.5 -14.5l42 -40l43 41q10 11 16.5 13.5t10.5 2.5h5h69l-93 -88q-3 -5 -9 -8.5t-12 -3.5h-60q-5 0 -11 3.5zM388 191q9 -2 9 -10v-47q0 -24 -18 -38t-44 -14h-272q-4 0 -7.5 -3t-3.5 -8v-71h283q63 0 103 35.5
t40 98.5v89q0 12 -7.5 21.5t-19.5 11.5l-309 73q-9 4 -9 11v29q0 49 50 49h263q5 0 8 3.5t3 7.5v71h-274q-61 0 -99 -36t-38 -96v-67q0 -12 8 -21.5t20 -11.5z" />
    <glyph glyph-name="germandbls" unicode="&#xdf;" horiz-adv-x="565" 
d="M99.5 669q21.5 37 58.5 58.5t81 21.5h103q44 0 81 -21.5t58.5 -58.5t21.5 -81v-72q0 -36 -25.5 -72.5t-61.5 -43.5q37 -10 62 -45.5t25 -71.5v-121q0 -44 -21.5 -81t-58.5 -59t-81 -22h-125v81h125q30 0 51 21.5t21 51.5v133q0 30 -21 52t-51 22h-124v78h124
q30 0 51 21.5t21 51.5v84q0 30 -21 52t-51 22h-103q-30 0 -51 -22t-21 -52v-595h-89v587q0 44 21.5 81z" />
    <glyph glyph-name="t" unicode="t" horiz-adv-x="338" 
d="M305 80q3 -3 3 -8v-72h-101q-39 0 -73 19.5t-53.5 53t-19.5 73.5v596h76q5 0 8 -3t3 -8v-250q4 8 11.5 13t17.5 5h106v-72q0 -4 -3 -7t-8 -3h-124v-275q0 -25 17 -42t42 -17h90q5 0 8 -3z" />
    <glyph glyph-name="u" unicode="u" horiz-adv-x="547" 
d="M137 501q5 0 8 -3t3 -8v-348q0 -25 17 -42t42 -17h132q25 0 42.5 17t17.5 42v348q0 5 3.5 8t7.5 3h76v-355q0 -40 -20 -73.5t-53.5 -53t-73.5 -19.5h-132q-40 0 -73.5 19.5t-53 53t-19.5 73.5v355h76z" />
    <glyph glyph-name="uacute" unicode="&#xfa;" horiz-adv-x="547" 
d="M299.5 603q-5.5 -3 -10.5 -3h-71l43 101q2 5 7 8.5t10 3.5h71l-42 -102q-2 -5 -7.5 -8zM137 501q5 0 8 -3t3 -8v-348q0 -25 17 -42t42 -17h132q25 0 42.5 17t17.5 42v348q0 5 3.5 8t7.5 3h76v-355q0 -40 -20 -73.5t-53.5 -53t-73.5 -19.5h-132q-40 0 -73.5 19.5t-53 53
t-19.5 73.5v355h76z" />
    <glyph glyph-name="ucircumflex" unicode="&#xfb;" horiz-adv-x="547" 
d="M315 715.5q6 -4.5 8 -10.5l89 -106h-66q-8 0 -14 3t-16 18l-41 47l-41 -49q-9 -13 -15.5 -16t-10.5 -3h-5h-65l88 106q3 6 9 10.5t11 4.5h58q5 0 11 -4.5zM137 501q5 0 8 -3t3 -8v-348q0 -25 17 -42t42 -17h132q25 0 42.5 17t17.5 42v348q0 5 3.5 8t7.5 3h76v-355
q0 -40 -20 -73.5t-53.5 -53t-73.5 -19.5h-132q-40 0 -73.5 19.5t-53 53t-19.5 73.5v355h76z" />
    <glyph glyph-name="udieresis" unicode="&#xfc;" horiz-adv-x="547" 
d="M145.5 625q-3.5 4 -3.5 10v78h72q6 0 9.5 -4.5t3.5 -10.5v-77h-72q-6 0 -9.5 4zM337.5 625q-3.5 4 -3.5 10v78h72q6 0 10 -4.5t4 -10.5v-77h-73q-6 0 -9.5 4zM137 501q5 0 8 -3t3 -8v-348q0 -25 17 -42t42 -17h132q25 0 42.5 17t17.5 42v348q0 5 3.5 8t7.5 3h76v-355
q0 -40 -20 -73.5t-53.5 -53t-73.5 -19.5h-132q-40 0 -73.5 19.5t-53 53t-19.5 73.5v355h76z" />
    <glyph glyph-name="ugrave" unicode="&#xf9;" horiz-adv-x="547" 
d="M251 610.5q-5 3.5 -7 7.5l-51 102h80q5 0 10 -3.5t7 -8.5l43 -101h-72q-5 0 -10 3.5zM137 501q5 0 8 -3t3 -8v-348q0 -25 17 -42t42 -17h132q25 0 42.5 17t17.5 42v348q0 5 3.5 8t7.5 3h76v-355q0 -40 -20 -73.5t-53.5 -53t-73.5 -19.5h-132q-40 0 -73.5 19.5t-53 53
t-19.5 73.5v355h76z" />
    <glyph glyph-name="v" unicode="v" horiz-adv-x="497" 
d="M10 501h85q8 0 12 -9l139 -355l139 355q4 9 13 9h85l-205 -493q-3 -8 -12 -8h-41q-9 0 -12 8z" />
    <glyph glyph-name="w" unicode="w" horiz-adv-x="723" 
d="M663 500v-435q0 -27 -19 -46t-46 -19h-393q-40 0 -73.5 19.5t-53 53t-19.5 73.5v354h76q5 0 8 -3t3 -7v-348q0 -25 17 -42t42 -17h130q-8 4 -12.5 11.5t-4.5 16.5v389h76q5 0 8 -3t3 -7v-396q0 -5 3 -8t7 -3h151q4 0 7 3t3 8v396q0 4 3 7t8 3h76z" />
    <glyph glyph-name="x" unicode="x" horiz-adv-x="466" 
d="M332 232l114 -232h-84q-6 0 -10 6l-93 197q-3 6 -9 6h-32q-7 0 -9 -6l-94 -197q-2 -6 -10 -6h-83l115 235q7 11 16 15q-11 6 -17 17l-115 233h86q7 0 10 -6l92 -196q2 -5 9 -5h32q6 0 9 5l92 196q2 6 10 6h86l-115 -232q-6 -12 -18 -18q12 -6 18 -18z" />
    <glyph glyph-name="y" unicode="y" horiz-adv-x="536" 
d="M463 500q5 0 8 -3t3 -7v-588q0 -40 -19.5 -73.5t-53.5 -53t-73 -19.5h-246v72q0 4 3.5 7.5t7.5 3.5h235q24 0 41.5 17.5t17.5 41.5v134q-11 -14 -29 -23t-40 -9h-113q-40 0 -73.5 19.5t-53 53.5t-19.5 73v354h76q5 0 8 -3t3 -7v-348q0 -24 17 -41.5t42 -17.5h133
q20 3 34 17.5t15 33.5v366h76z" />
    <glyph glyph-name="yacute" unicode="&#xfd;" horiz-adv-x="536" 
d="M291.5 623q-5.5 -3 -10.5 -3h-71l43 101q2 5 7 8.5t10 3.5h71l-42 -102q-2 -5 -7.5 -8zM463 500q5 0 8 -3t3 -7v-588q0 -40 -19.5 -73.5t-53.5 -53t-73 -19.5h-246v72q0 4 3.5 7.5t7.5 3.5h235q24 0 41.5 17.5t17.5 41.5v134q-11 -14 -29 -23t-40 -9h-113
q-40 0 -73.5 19.5t-53 53.5t-19.5 73v354h76q5 0 8 -3t3 -7v-348q0 -24 17 -41.5t42 -17.5h133q20 3 34 17.5t15 33.5v366h76z" />
    <glyph glyph-name="ydieresis" unicode="&#xff;" horiz-adv-x="536" 
d="M128 641.5q-4 4.5 -4 9.5v78h77q6 0 10 -4.5t4 -10.5v-77h-77q-6 0 -10 4.5zM332 641.5q-4 4.5 -4 9.5v78h77q6 0 10 -4.5t4 -10.5v-77h-77q-6 0 -10 4.5zM463 500q5 0 8 -3t3 -7v-588q0 -40 -19.5 -73.5t-53.5 -53t-73 -19.5h-246v72q0 4 3.5 7.5t7.5 3.5h235
q24 0 41.5 17.5t17.5 41.5v134q-11 -14 -29 -23t-40 -9h-113q-40 0 -73.5 19.5t-53 53.5t-19.5 73v354h76q5 0 8 -3t3 -7v-348q0 -24 17 -41.5t42 -17.5h133q20 3 34 17.5t15 33.5v366h76z" />
    <glyph glyph-name="z" unicode="z" horiz-adv-x="461" 
d="M430 11q0 -4 -3 -7.5t-8 -3.5h-378q-4 0 -7.5 3.5t-3.5 7.5v39q0 28 18 49l271 309q2 2 2 5q0 7 -7 7h-258v70q0 4 3 7t8 3h345q5 0 8 -3t3 -7v-56q0 -28 -18 -49l-257 -292q-5 -5 0 -10q1 -2 4 -2h278v-70z" />
    <glyph glyph-name="zacute" unicode="&#x17a;" horiz-adv-x="466" 
d="M258 596q-5 -3 -10 -3h-65l49 115q2 5 7 8t10 3h75l-59 -115q-2 -5 -7 -8zM435 11q0 -4 -3 -7.5t-8 -3.5h-383q-4 0 -7.5 3.5t-3.5 7.5v39q0 28 18 49l267 307l2 4q0 3 -2 5.5t-5 2.5h-280v71q0 5 3.5 8t7.5 3h371q5 0 8 -3t3 -8v-55q0 -28 -18 -49l-253 -290
q-5 -5 0 -10l4 -2h279v-72z" />
    <glyph glyph-name="zcaron" unicode="&#x17e;" horiz-adv-x="461" 
d="M208 607.5q-6 3.5 -9 8.5l-89 89h66q9 0 15 -2.5t16 -14.5l41 -40l41 41q9 11 15.5 13.5t10.5 2.5h5h66l-89 -89q-3 -5 -9 -8.5t-11 -3.5h-58q-5 0 -11 3.5zM430 11q0 -4 -3 -7.5t-8 -3.5h-378q-4 0 -7.5 3.5t-3.5 7.5v39q0 28 18 49l271 309q2 2 2 5q0 7 -7 7h-258v70
q0 4 3 7t8 3h345q5 0 8 -3t3 -7v-56q0 -28 -18 -49l-257 -292q-5 -5 0 -10q1 -2 4 -2h278v-70z" />
    <glyph glyph-name="zdotaccent" unicode="&#x17c;" horiz-adv-x="466" 
d="M196.5 614q-5.5 5 -5.5 13v70h70q8 0 13.5 -5.5t5.5 -12.5v-70h-70q-8 0 -13.5 5zM435 11q0 -4 -3 -7.5t-8 -3.5h-383q-4 0 -7.5 3.5t-3.5 7.5v39q0 28 18 49l267 307l2 4q0 3 -2 5.5t-5 2.5h-280v71q0 5 3.5 8t7.5 3h371q5 0 8 -3t3 -8v-55q0 -28 -18 -49l-253 -290
q-5 -5 0 -10l4 -2h279v-72z" />
    <glyph glyph-name="zero" unicode="0" horiz-adv-x="634" 
d="M521 717q48 -39 48 -116v-443q0 -46 -23 -83t-62 -58t-86 -21h-167q-73 0 -121.5 40.5t-48.5 109.5v449q0 46 22.5 83t61.5 57.5t86 20.5h167q75 0 123 -39zM153 158v-3l269 511q-14 4 -22 4h-171q-31 0 -53.5 -22t-22.5 -54v-436zM476 594v7l-272 -515q16 -4 25 -4h171
q32 0 54 22.5t22 53.5v436z" />
    <glyph glyph-name="one" unicode="1" horiz-adv-x="266" 
d="M191 747.5q4 -3.5 4 -9.5v-738h-80q-5 0 -9 4t-4 9v653h-73q-5 0 -9 3.5t-4 9.5v72h166q5 0 9 -3.5z" />
    <glyph glyph-name="two" unicode="2" horiz-adv-x="637" 
d="M142 86h412q5 0 9 -4t4 -9v-73h-503q-5 0 -9 4t-4 9v148q0 24 14.5 49.5t35.5 38.5l346 247q5 3 8.5 9t3.5 11v73q0 78 -77 78h-298q-5 0 -9 3.5t-4 9.5v72h311q74 0 122.5 -41.5t48.5 -117.5v-75q0 -58 -50 -88l-350 -252q-4 -2 -7.5 -8t-3.5 -11v-73z" />
    <glyph glyph-name="three" unicode="3" horiz-adv-x="563" 
d="M483.5 412.5q-11.5 -18.5 -30.5 -23.5q17 -1 28.5 -14.5t11.5 -32.5v-183q0 -73 -47 -116t-119 -43h-294v72q0 5 4 9t9 4h281q32 0 54 20t22 51v180q0 5 -4 9t-9 4h-318q-13 0 -13 10v74h331q5 0 9 4t4 9v155q0 31 -21.5 49t-54.5 18h-277q-5 0 -9 3.5t-4 9.5v71h290
q72 0 119 -40.5t47 -109.5v-147q2 -24 -9.5 -42.5z" />
    <glyph glyph-name="four" unicode="4" horiz-adv-x="584" 
d="M558 156h-78v-156h-77q-5 0 -9 4t-4 9v143h-310q-23 0 -35.5 14.5t-12.5 39.5v53q0 8 3.5 17.5t8.5 16.5l346 455h77l1 -1q5 0 8.5 -4t3.5 -9v-499h65q5 0 9 -3.5t4 -9.5v-70zM390 618l-259 -346q-5 -5 -5 -13v-1q0 -19 14 -19h250v379z" />
    <glyph glyph-name="five" unicode="5" horiz-adv-x="604" 
d="M149 665v-182q0 -6 4 -9.5t9 -3.5h203q47 0 86 -19.5t61.5 -56t22.5 -86.5v-146q0 -49 -23 -85.5t-61.5 -56.5t-85.5 -20h-301v73q0 5 4 9t9 4h288q32 0 54 22.5t22 53.5v145q0 32 -22.5 54.5t-53.5 22.5h-244q-24 0 -41 17t-17 41v296q0 6 4 9.5t9 3.5h424v-73
q0 -5 -4 -9t-9 -4h-338z" />
    <glyph glyph-name="six" unicode="6" horiz-adv-x="642" 
d="M524.5 403.5q46.5 -43.5 46.5 -113.5v-127q0 -46 -21.5 -83.5t-59 -58.5t-83.5 -21h-168q-47 0 -85.5 20t-60.5 56t-22 82v423q0 46 22.5 85.5t61 62.5t84.5 23h292v-73q0 -6 -4 -9.5t-9 -3.5h-279q-31 0 -53.5 -22.5t-22.5 -54.5v-163q6 10 16 15.5t21 5.5h207
q71 0 117.5 -43.5zM483 285q0 32 -22 54t-54 22h-231q-5 0 -9 -4t-4 -9v-186q0 -31 22.5 -53.5t53.5 -22.5h168q32 0 54 22.5t22 53.5v123z" />
    <glyph glyph-name="seven" unicode="7" horiz-adv-x="550" 
d="M39 670.5q-4 3.5 -4 9.5v71h442q19 0 31 -11t12 -29q0 -10 -2 -15l-321 -684q-2 -5 -7 -8.5t-10 -3.5h-84l301 654v3q0 10 -10 10h-339q-5 0 -9 3.5z" />
    <glyph glyph-name="eight" unicode="8" horiz-adv-x="649" 
d="M562.5 445q-15.5 -33 -43.5 -58q28 -24 43.5 -57t15.5 -70v-99q0 -46 -22 -84t-60.5 -59.5t-84.5 -21.5h-181q-46 0 -84.5 21.5t-60.5 59.5t-22 84v99q0 37 15.5 70t43.5 57q-28 25 -43.5 58t-15.5 70v70q0 46 22 85.5t60.5 62.5t84.5 23h181q46 0 84.5 -22.5t60.5 -61
t22 -84.5v-73q0 -37 -15.5 -70zM154 507q0 -31 22.5 -53.5t53.5 -22.5h181q32 0 54 22.5t22 53.5v87q0 32 -22.5 56t-53.5 24h-181q-31 0 -53.5 -24t-22.5 -56v-87zM487 268q0 32 -22 54t-54 22h-181q-31 0 -53.5 -22t-22.5 -54v-110q0 -32 22.5 -54.5t53.5 -22.5h181
q31 0 53.5 22.5t22.5 54.5v110z" />
    <glyph glyph-name="nine" unicode="9" horiz-adv-x="646" 
d="M113.5 348.5q-46.5 43.5 -46.5 113.5v127q0 46 21.5 83.5t59 58.5t83.5 21h168q47 0 85.5 -20t60.5 -56t22 -82v-423q0 -46 -22.5 -85.5t-61 -62.5t-84.5 -23h-312v73q0 6 4 9.5t9 3.5h299q31 0 53.5 22.5t22.5 54.5v163q-6 -10 -16 -15.5t-21 -5.5h-207
q-71 0 -117.5 43.5zM177.5 413.5q22.5 -22.5 53.5 -22.5h231q5 0 9 4t4 9v186q0 32 -22 54t-54 22h-168q-31 0 -53.5 -22t-22.5 -54v-123q0 -31 22.5 -53.5z" />
    <glyph glyph-name="fraction" unicode="&#x2044;" horiz-adv-x="222" 
d="M348 751l-374 -739q-2 -5 -8 -8.5t-11 -3.5h-83l374 739q2 5 7.5 8.5t11.5 3.5h83z" />
    <glyph glyph-name="period" unicode="." horiz-adv-x="217" 
d="M64 4.5q-4 4.5 -4 9.5v80h79q6 0 10 -4.5t4 -10.5v-79h-79q-6 0 -10 4.5z" />
    <glyph glyph-name="comma" unicode="," horiz-adv-x="208" 
d="M144 89.5q4 -4.5 4 -10.5v-124l-88 -52v191h74q6 0 10 -4.5z" />
    <glyph glyph-name="colon" unicode=":" horiz-adv-x="185" 
d="M51 340q-4 4 -4 10v79h79q6 0 10 -4t4 -10v-79h-79q-6 0 -10 4zM51 4.5q-4 4.5 -4 9.5v80h79q6 0 10 -4.5t4 -10.5v-79h-79q-6 0 -10 4.5z" />
    <glyph glyph-name="semicolon" unicode=";" horiz-adv-x="201" 
d="M56 340q-4 4 -4 10v79h79q6 0 10 -4t4 -10v-79h-79q-6 0 -10 4zM138 89.5q4 -4.5 4 -10.5v-133l-87 -53v201h73q6 0 10 -4.5z" />
    <glyph glyph-name="ellipsis" unicode="&#x2026;" horiz-adv-x="651" 
d="M64 4.5q-4 4.5 -4 9.5v80h79q6 0 10 -4.5t4 -10.5v-79h-79q-6 0 -10 4.5zM281 4.5q-4 4.5 -4 9.5v80h79q6 0 10 -4.5t4 -10.5v-79h-79q-6 0 -10 4.5zM498 4.5q-4 4.5 -4 9.5v80h79q6 0 10 -4.5t4 -10.5v-79h-79q-6 0 -10 4.5z" />
    <glyph glyph-name="exclam" unicode="!" horiz-adv-x="249" 
d="M79 172.5q-4 3.5 -4 9.5v568h81q5 0 9 -4t4 -9v-568h-81q-5 0 -9 3.5zM169 0v80q0 5 -4 9.5t-10 4.5h-80v-80q0 -6 4 -10t10 -4h80z" />
    <glyph glyph-name="exclamdown" unicode="&#xa1;" horiz-adv-x="237" 
d="M161 515q4 -4 4 -10v-80h-80q-6 0 -10 4.5t-4 9.5v80h80q6 0 10 -4zM161 346.5q4 -3.5 4 -9.5v-568h-81q-5 0 -9 4t-4 9v568h81q5 0 9 -3.5z" />
    <glyph glyph-name="question" unicode="?" horiz-adv-x="552" 
d="M417.5 483q5.5 7 5.5 15v96q0 30 -24 50.5t-56 20.5h-288q-5 0 -9 3.5t-4 9.5v72h301q72 0 121 -40t49 -108v-121q0 -24 -16 -46t-39 -30l-175 -72q-8 -2 -13 -9.5t-5 -15.5v-141h-81q-5 0 -9 4t-4 9v146q0 24 16 46.5t39 29.5l179 72q7 2 12.5 9zM175 4q-4 4 -4 10v80
h79q6 0 10.5 -4.5t4.5 -9.5v-80h-80q-6 0 -10 4z" />
    <glyph glyph-name="questiondown" unicode="&#xbf;" horiz-adv-x="557" 
d="M386 515q4 -4 4 -10v-80h-79q-6 0 -10.5 4.5t-4.5 9.5v80h80q6 0 10 -4zM143.5 36q-5.5 -7 -5.5 -15v-96q0 -30 24 -50.5t56 -20.5h288q5 0 9 -3.5t4 -9.5v-72h-301q-72 0 -121 40t-49 108v121q0 24 16 46t39 30l175 72q8 2 13 9.5t5 15.5v141h81q5 0 9 -4t4 -9v-146
q0 -24 -16 -46.5t-39 -29.5l-179 -72q-7 -2 -12.5 -9z" />
    <glyph glyph-name="bullet" unicode="&#x2022;" horiz-adv-x="265" 
d="M74 304.5q-6 6.5 -6 14.5v119h118q9 0 15 -6.5t6 -15.5v-118h-118q-9 0 -15 6.5z" />
    <glyph glyph-name="asterisk" unicode="*" horiz-adv-x="313" 
d="M266 579l-5 -9l-22 -32l-62 47l4 -64q0 -6 -3.5 -9.5t-8.5 -3.5h-41l2 76l-50 -38q-4 -2 -7 -2q-6 0 -10 4l-24 34l76 48l-65 42l1 -1q-7 3 -7 15l1 2l25 34l61 -46l-3 63q0 6 3.5 10t9.5 4h40l-4 -77l52 39q4 3 8 3q7 0 10 -7v1l24 -33l-75 -48l64 -42q6 -4 6 -10z" />
    <glyph glyph-name="numbersign" unicode="#" horiz-adv-x="684" 
d="M650 560l-15 -69q-1 -6 -6.5 -10.5t-10.5 -4.5h-83l-48 -207h96l-17 -72q-1 -6 -6.5 -10t-10.5 -4h-84l-40 -170q-1 -6 -5.5 -10.5t-9.5 -4.5h-81l44 185h-157l-40 -170q-2 -6 -6 -10.5t-9 -4.5h-81l44 185h-108l18 72q1 6 6 10t10 4h95l49 207h-108l15 69q1 6 6 10.5
t10 4.5h95l44 181q1 6 6 10t10 4h80l-47 -195h156l44 181q4 14 17 14h79l-47 -195h96zM442 476h-155l-48 -207h155z" />
    <glyph glyph-name="slash" unicode="/" horiz-adv-x="511" 
d="M476 751l-374 -739q-2 -5 -8 -8.5t-11 -3.5h-83l374 739q2 5 7.5 8.5t11.5 3.5h83z" />
    <glyph glyph-name="backslash" unicode="\" horiz-adv-x="482" 
d="M94 747.5q6 -3.5 8 -8.5l374 -739h-83q-6 0 -11.5 3.5t-7.5 8.5l-374 739h83q5 0 11 -3.5z" />
    <glyph glyph-name="periodcentered.cap" horiz-adv-x="0" 
 />
    <glyph glyph-name="parenleft" unicode="(" horiz-adv-x="281" 
d="M175 646.5q-18 -20.5 -18 -48.5v-529q0 -28 18 -49t45 -26q5 -1 9 -5t4 -9v-73q-46 0 -85 23t-62 62t-23 85v512q0 46 23 85t62 62t85 23v-72q0 -11 -13 -15q-27 -5 -45 -25.5z" />
    <glyph glyph-name="parenright" unicode=")" horiz-adv-x="275" 
d="M35 687v72q46 0 85 -23t62 -62t23 -85v-512q0 -46 -23 -85t-62 -62t-85 -23v73q0 5 4 9t9 5q27 5 45 26t18 49v529q0 28 -18 48.5t-45 25.5q-13 4 -13 15z" />
    <glyph glyph-name="braceleft" unicode="{" horiz-adv-x="337" 
d="M207.5 354.5q-18.5 -20.5 -45.5 -23.5q-3 -1 0 -1q27 -3 45.5 -23.5t18.5 -48.5v-203q0 -28 18 -49q19 -21 45 -25q13 -4 13 -15v-72q-73 0 -121.5 42t-48.5 119v167q0 30 -21 51t-51 21v72q30 0 51 21.5t21 51.5v162q1 44 21.5 81t59 59t89.5 22v-72q0 -12 -13 -15
q-28 -6 -45 -26q-18 -19 -18 -48v-199q0 -28 -18.5 -48.5z" />
    <glyph glyph-name="braceright" unicode="}" horiz-adv-x="330" 
d="M123 602q0 29 -18 48q-17 20 -45 26q-13 3 -13 15v72q51 0 89.5 -22t59 -59t21.5 -81v-162q0 -30 21 -51.5t51 -21.5v-72q-30 0 -51 -21t-21 -51v-167q0 -77 -48.5 -119t-121.5 -42v72q0 11 13 15q26 4 45 25q18 21 18 49v203q0 28 18.5 48.5t45.5 23.5q3 0 0 1
q-27 3 -45.5 23.5t-18.5 48.5v199z" />
    <glyph glyph-name="bracketleft" unicode="[" horiz-adv-x="260" 
d="M46 740q0 8 5.5 13t13.5 5h156v-74q0 -13 -13 -13h-68v-677h68q13 0 13 -13v-75h-156q-8 0 -13.5 5.5t-5.5 13.5v815z" />
    <glyph glyph-name="bracketright" unicode="]" horiz-adv-x="298" 
d="M214.5 -88.5q-5.5 -5.5 -13.5 -5.5h-156v75q0 13 13 13h68v677h-68q-13 0 -13 13v74h156q8 0 13.5 -5t5.5 -13v-815q0 -8 -5.5 -13.5z" />
    <glyph glyph-name="hyphen" unicode="-" horiz-adv-x="403" 
d="M338 336q-4 -4 -9 -4h-269v73q0 5 4 9t9 4h269v-73q0 -5 -4 -9z" />
    <glyph glyph-name="endash" unicode="&#x2013;" horiz-adv-x="452" 
d="M397 336q-4 -4 -9 -4h-328v70q0 5 4 9t9 4h328v-70q0 -5 -4 -9z" />
    <glyph glyph-name="emdash" unicode="&#x2014;" horiz-adv-x="531" 
d="M469 336q-4 -4 -9 -4h-400v70q0 5 4 9t9 4h400v-70q0 -5 -4 -9z" />
    <glyph glyph-name="underscore" unicode="_" horiz-adv-x="572" 
d="M517.5 -78q-3.5 -4 -9.5 -4h-448v73q0 5 4 9t9 4h448v-73q0 -5 -3.5 -9z" />
    <glyph glyph-name="quotesinglbase" unicode="&#x201a;" horiz-adv-x="208" 
d="M144 89.5q4 -4.5 4 -10.5v-124l-88 -52v191h74q6 0 10 -4.5z" />
    <glyph glyph-name="quotedblbase" unicode="&#x201e;" horiz-adv-x="359" 
d="M144 89.5q4 -4.5 4 -10.5v-124l-88 -52v191h74q6 0 10 -4.5zM296 89.5q4 -4.5 4 -10.5v-124l-88 -52v191h74q6 0 10 -4.5z" />
    <glyph glyph-name="quotedblleft" unicode="&#x201c;" horiz-adv-x="333" 
d="M137 744q4 -4 4 -10v-98l-83 -47v159h69q6 0 10 -4zM279 744q4 -4 4 -10v-98l-83 -47v159h69q6 0 10 -4z" />
    <glyph glyph-name="quotedblright" unicode="&#x201d;" horiz-adv-x="346" 
d="M63 594q-4 4 -4 10v98l83 47v-159h-69q-6 0 -10 4zM205 594q-4 4 -4 10v98l83 47v-159h-69q-6 0 -10 4z" />
    <glyph glyph-name="quoteleft" unicode="&#x2018;" horiz-adv-x="183" 
d="M139 746q4 -4 4 -10v-98l-83 -47v159h69q6 0 10 -4z" />
    <glyph glyph-name="quoteright" unicode="&#x2019;" horiz-adv-x="179" 
d="M63 594q-4 4 -4 10v98l83 47v-159h-69q-6 0 -10 4z" />
    <glyph glyph-name="quotedbl" unicode="&#x22;" horiz-adv-x="315" 
d="M266 752q4 -4 4 -10v-112l-83 -33v159h69q6 0 10 -4zM124 746q4 -4 4 -10v-112l-83 -33v159h69q6 0 10 -4z" />
    <glyph glyph-name="quotesingle" unicode="'" horiz-adv-x="162" 
d="M124 746q4 -4 4 -10v-112l-83 -33v159h69q6 0 10 -4z" />
    <glyph glyph-name="Euro" unicode="&#x20ac;" horiz-adv-x="571" 
d="M195.5 643q-22.5 -22 -22.5 -54v-122h309v-52q0 -13 -13 -13h-296v-59h309v-53q0 -5 -3.5 -9t-9.5 -4h-296v-115q0 -31 22.5 -53.5t53.5 -22.5h256q5 0 9 -4t4 -9v-73h-269q-46 0 -85 23t-62 62t-23 85v107h-79v53q0 5 4 9t9 4h66v59h-79v52q0 5 4 9t9 4h66v114
q0 46 23 85t62 62t85 23h269v-73q0 -5 -4 -9t-9 -4h-256q-31 0 -53.5 -22z" />
    <glyph glyph-name="dollar" unicode="$" horiz-adv-x="648" 
d="M287 -81v81h-247v73q0 6 4 9.5t9 3.5h234v260l-178 59q-23 8 -39 30t-16 46v100q0 46 23 85t62 62t85 23h63v98h66q13 0 13 -13v-85h202v-73q0 -5 -3.5 -9t-9.5 -4h-189v-259l181 -59q23 -8 39 -30.5t16 -46.5v-99q0 -46 -23 -85.5t-62 -62.5t-85 -23h-66v-94h-66
q-13 0 -13 13zM153 483.5q5 -7.5 13 -9.5l121 -40v231h-63q-31 0 -53.5 -22t-22.5 -54v-90q0 -8 5 -15.5zM486 108.5q22 22.5 22 53.5v91q0 8 -5.5 15t-12.5 9l-124 41v-232h66q32 0 54 22.5z" />
    <glyph glyph-name="_37" unicode="%" horiz-adv-x="675" 
d="M572 751l-374 -739q-2 -5 -7.5 -8.5t-11.5 -3.5h-83l374 739q2 5 8 8.5t11 3.5h83zM138 431q-41 0 -70.5 29.5t-29.5 70.5v117q0 41 29.5 70.5t70.5 29.5h42q41 0 70.5 -29.5t29.5 -70.5v-117q0 -41 -29.5 -70.5t-70.5 -29.5h-42zM125.5 507.5q4.5 -4.5 10.5 -4.5h46
q7 0 11.5 4.5t4.5 10.5v143q0 6 -4.5 10.5t-11.5 4.5h-46q-6 0 -10.5 -4.5t-4.5 -10.5v-143q0 -6 4.5 -10.5zM607.5 289q29.5 -29 29.5 -71v-116q0 -41 -29.5 -70.5t-70.5 -29.5h-42q-41 0 -70.5 29.5t-29.5 70.5v116q0 42 29.5 71t70.5 29h42q41 0 70.5 -29zM554 233
q0 6 -4 10t-11 4h-46q-6 0 -10.5 -4.5t-4.5 -9.5v-145q0 -5 4.5 -9.5t10.5 -4.5h46q7 0 11 4.5t4 9.5v145z" />
    <glyph glyph-name="plus" unicode="+" horiz-adv-x="318" 
d="M292 412v-62q0 -5 -4 -9t-9 -4h-85v-103h-63q-5 0 -9 4t-4 9v90h-98v62q0 5 4 9t9 4h85v104h63q5 0 9 -4t4 -9v-91h98z" />
    <glyph glyph-name="minus" unicode="&#x2212;" horiz-adv-x="403" 
d="M338 336q-4 -4 -9 -4h-269v73q0 5 4 9t9 4h269v-73q0 -5 -4 -9z" />
    <glyph glyph-name="equal" unicode="=" horiz-adv-x="416" 
d="M350 439v-63q0 -12 -12 -12h-296v63q0 12 12 12h296zM54 283h296v-62q0 -11 -12 -11h-296v62q0 11 12 11z" />
    <glyph glyph-name="notequal" unicode="&#x2260;" horiz-adv-x="399" 
d="M265 504q3 4 7.5 7.5t9.5 3.5h54l-42 -76h57v-63q0 -12 -12 -12h-86l-44 -81h142v-62q0 -11 -12 -11h-170l-37 -69q-2 -4 -7 -7.5t-10 -3.5h-54l43 80h-61v62q0 11 12 11h89l44 81h-145v63q0 12 12 12h174z" />
    <glyph glyph-name="greater" unicode="&#x3e;" horiz-adv-x="378" 
d="M322 395.5q3 -6.5 3 -11.5v-42q0 -5 -3 -11.5t-7 -9.5l-260 -140v63q0 15 15 26l179 94l-179 95q-15 11 -15 25v62l260 -141q4 -3 7 -9.5z" />
    <glyph glyph-name="less" unicode="&#x3c;" horiz-adv-x="342" 
d="M299 484q0 -14 -15 -25l-179 -95l179 -94q15 -11 15 -26v-63l-260 140q-4 3 -7 9.5t-3 11.5v42q0 5 3 11.5t7 9.5l260 141v-62z" />
    <glyph glyph-name="greaterequal" unicode="&#x2265;" horiz-adv-x="362" 
d="M314 409.5q3 -6.5 3 -11.5v-53q0 -5 -3 -11.5t-7 -9.5l-260 -135v59q0 8 4.5 16.5t10.5 13.5l186 94l-186 93q-6 5 -10.5 13.5t-4.5 16.5v59l260 -135q4 -3 7 -9.5zM307 131q5 0 9 -4t4 -9v-65h-269q-5 0 -9 4t-4 9v65h269z" />
    <glyph glyph-name="lessequal" unicode="&#x2264;" horiz-adv-x="377" 
d="M311.5 478.5q-4.5 -8.5 -10.5 -13.5l-186 -93l186 -94q6 -5 10.5 -13.5t4.5 -16.5v-59l-260 135q-4 3 -7 9.5t-3 11.5v53q0 5 3 11.5t7 9.5l260 135v-59q0 -8 -4.5 -16.5zM321 57q-4 -4 -9 -4h-269v65q0 5 4 9t9 4h269v-65q0 -5 -4 -9z" />
    <glyph glyph-name="plusminus" unicode="&#xb1;" horiz-adv-x="411" 
d="M341 341q0 -5 -4 -9t-9 -4h-85v-98h-73q-5 0 -9 4t-4 9v85h-98v73q0 5 4 9t9 4h85v98h73q5 0 9 -4t4 -9v-85h98v-73zM71 166q-5 0 -9 -4t-4 -9v-73h269q5 0 9 4t4 9v73h-269z" />
    <glyph glyph-name="asciitilde" unicode="~" horiz-adv-x="539" 
d="M381 369l4 -1q9 0 12 10l4 14q2 5 6.5 7.5t9.5 1.5l78 -21l-18 -68q-6 -19 -21.5 -31t-35.5 -12q-4 0 -14 2l-222 60h-3q-4 0 -7.5 -2.5t-4.5 -6.5l-6 -20q-2 -5 -6.5 -7.5t-9.5 -1.5l-78 21l20 74q5 19 21 31t36 12q4 0 14 -2z" />
    <glyph glyph-name="asciicircum" unicode="^" horiz-adv-x="395" 
d="M142 740q4 5 10 8t11 3h53q6 0 12 -3t9 -8l136 -239h-75q-7 0 -15.5 4.5t-13.5 10.5l-79 149l-79 -149q-4 -6 -13 -10.5t-17 -4.5h-74z" />
    <glyph glyph-name="percent" horiz-adv-x="599" 
d="M534 751l-374 -739q-2 -5 -7.5 -8.5t-11.5 -3.5h-83l374 739q2 5 8 8.5t11 3.5h83zM100 431q-41 0 -70.5 29.5t-29.5 70.5v117q0 41 29.5 70.5t70.5 29.5h42q41 0 70.5 -29.5t29.5 -70.5v-117q0 -41 -29.5 -70.5t-70.5 -29.5h-42zM91 516q4 -4 9 -4h42q6 0 10 4t4 9v129
q0 5 -4 9t-10 4h-42q-5 0 -9 -4t-4 -9v-129q0 -5 4 -9zM569.5 289q29.5 -29 29.5 -71v-116q0 -41 -29.5 -70.5t-70.5 -29.5h-42q-41 0 -70.5 29.5t-29.5 70.5v116q0 42 29.5 71t70.5 29h42q41 0 70.5 -29zM512 225q0 5 -3.5 9t-9.5 4h-42q-5 0 -9 -4t-4 -9v-129q0 -5 4 -9
t9 -4h42q6 0 9.5 4t3.5 9v129z" />
    <glyph glyph-name="at" unicode="@" horiz-adv-x="752" 
d="M453 338v1v20q0 16 -12 28t-29 12h-170q-5 0 -9.5 4.5t-4.5 11.5v63h184q51 0 87 -35.5t36 -86.5v-218h80v353q0 23 -16.5 39.5t-39.5 16.5h-370q-23 0 -40 -16.5t-17 -39.5v-443q0 -23 17 -39.5t40 -16.5h378q11 0 18.5 -7.5t7.5 -17.5v-43h-390q-59 0 -100 35.5
t-41 92.5v422q0 38 19 70.5t51.5 51.5t70.5 19h341q38 0 70.5 -19t51.5 -51.5t19 -70.5v-407h-369q-51 0 -87 35.5t-36 86.5v26q0 51 36 86.5t87 35.5h137v1zM438 258h-122q-17 0 -29 -12t-12 -28v-40q0 -16 12 -28t29 -12h137v123q-6 -3 -15 -3z" />
    <glyph glyph-name="ampersand" unicode="&#x26;" horiz-adv-x="712" 
d="M623 0q-11 0 -22 9l-99 94l-123 -91q-7 -5 -17 -8t-19 -3h-160q-37 0 -68.5 18.5t-50 49.5t-18.5 68v158q0 22 11.5 45t30.5 36l71 52l-48 46q-15 14 -25 36.5t-10 43.5v61q0 36 18.5 66.5t50.5 48.5t69 18h256v-185h-73q-5 0 -9 3.5t-4 9.5v88h-170q-19 0 -32.5 -13
t-13.5 -30l-1 -73q0 -3 1.5 -7t4.5 -7l331 -315l47 38q5 4 14 4t16 -5l50 -48l-62 -50l140 -134v-24h-86zM226 365l-84 -63q-2 -1 -3.5 -3.5t-1.5 -4.5v-163q0 -19 13.5 -32t32.5 -13h139q13 0 25 7l94 68z" />
    <glyph glyph-name="trademark" unicode="&#x2122;" horiz-adv-x="563" 
d="M233 746v-23q0 -4 -4 -4h-66v-202q0 -5 -4 -5h-26v207h-69v23q0 4 4 4h165zM291 741l78 -142l77 142q4 4 9 4h21q4 0 4 -4v-228h-25q-4 0 -4 4v181l-65 -123q-2 -4 -6 -4h-23q-4 0 -6 4l-65 123v-181q0 -4 -4 -4h-25v228q0 4 4 4h22q6 0 8 -4z" />
    <glyph glyph-name="degree" unicode="&#xb0;" horiz-adv-x="342" 
d="M80 551.5q-24 23.5 -24 57.5v60q0 33 24 57.5t57 24.5h60q33 0 57 -24.5t24 -57.5v-60q0 -34 -24 -57.5t-57 -23.5h-60q-33 0 -57 23.5zM118.5 590.5q6.5 -6.5 14.5 -6.5h68q9 0 15 6t6 15v68q0 10 -5.5 15.5t-15.5 5.5h-68q-9 0 -15 -6t-6 -15v-68q0 -8 6.5 -14.5z" />
    <glyph glyph-name="bar" unicode="|" horiz-adv-x="237" 
d="M76 -81v858h81q13 0 13 -13v-858h-81q-13 0 -13 13z" />
    <glyph glyph-name="uni2116" unicode="&#x2116;" horiz-adv-x="1140" 
d="M552 738q0 5 4 9t9 4h81v-751h-87q-5 0 -11 3.5t-8 8.5l-342 637q-4 7 -11.5 11.5t-15.5 4.5h-17v-652q0 -5 -4 -9t-9 -4h-81v738q0 5 4 9t9 4h114q24 0 49 -15t36 -36l280 -527v565zM1019.5 426.5q33.5 19.5 53.5 53t20 73.5v52q0 39 -20 72.5t-53.5 53.5t-73.5 20h-62
q-40 0 -73.5 -19.5t-53 -53.5t-19.5 -73v-52q0 -40 19.5 -73.5t53 -53t73.5 -19.5h62q40 0 73.5 19.5zM946 668q25 0 42.5 -17.5t17.5 -41.5v-60q0 -25 -17.5 -42.5t-42.5 -17.5h-62q-25 0 -42 17.5t-17 42.5v60q0 24 17 41.5t42 17.5h62zM751 327q-5 0 -9 -4t-4 -9v-73h341
q6 0 9.5 4t3.5 9v73h-341z" />
    <glyph glyph-name="acute" unicode="&#xb4;" horiz-adv-x="230" 
d="M137.5 644q-5.5 -3 -10.5 -3h-71l43 101q2 5 7 8.5t10 3.5h71l-42 -102q-2 -5 -7.5 -8z" />
    <glyph glyph-name="caron" unicode="&#x2c7;" horiz-adv-x="314" 
d="M118 652.5q-6 3.5 -9 8.5l-89 89h66q9 0 15 -2.5t16 -14.5l41 -40l41 41q9 11 15.5 13.5t10.5 2.5h5h66l-89 -89q-3 -5 -9 -8.5t-11 -3.5h-58q-5 0 -11 3.5z" />
    <glyph glyph-name="cedilla" unicode="&#xb8;" horiz-adv-x="329" 
d="M177 -45h35q24 0 41 -17t17 -41v-35q0 -24 -17 -41t-41 -17h-137v38q0 8 6 14t14 6h109q3 0 5.5 2t2.5 6v27q0 3 -2.5 5.5t-5.5 2.5h-95l27 98h55z" />
    <glyph glyph-name="circumflex" unicode="&#x2c6;" horiz-adv-x="314" 
d="M198 749.5q6 -3.5 9 -8.5l89 -89h-66q-9 0 -15 2.5t-16 14.5l-41 40l-41 -41q-9 -11 -15.5 -13.5t-10.5 -2.5h-5h-66l89 89q3 5 9 8.5t11 3.5h58q5 0 11 -3.5z" />
    <glyph glyph-name="dieresis" unicode="&#xa8;" horiz-adv-x="421" 
d="M64 662.5q-4 4.5 -4 9.5v78h77q6 0 10 -4.5t4 -10.5v-77h-77q-6 0 -10 4.5zM268 662.5q-4 4.5 -4 9.5v78h77q6 0 10 -4.5t4 -10.5v-77h-77q-6 0 -10 4.5z" />
    <glyph glyph-name="grave" unicode="`" horiz-adv-x="220" 
d="M93 642.5q-5 3.5 -7 7.5l-51 102h80q5 0 10 -3.5t7 -8.5l43 -101h-72q-5 0 -10 3.5z" />
    <glyph glyph-name="ring" unicode="&#x2da;" horiz-adv-x="273" 
d="M69.5 602.5q-18.5 18.5 -18.5 43.5v46q0 26 18.5 44.5t43.5 18.5h46q25 0 43.5 -18.5t18.5 -44.5v-46q0 -25 -18 -43.5t-44 -18.5h-46q-25 0 -43.5 18.5zM109 642q4 -4 8 -4h38q5 0 8.5 3.5t3.5 8.5v38q0 5 -3.5 8.5t-8.5 3.5h-38q-5 0 -8.5 -3.5t-3.5 -8.5v-38
q0 -4 4 -8z" />
    <glyph glyph-name="tilde" unicode="&#x2dc;" horiz-adv-x="366" 
d="M116.5 639.5q-4.5 -4.5 -11.5 -4.5h-41v73q0 14 10.5 24.5t25.5 10.5h42q7 0 16 -2.5t14 -5.5l55 -34q6 -4 13 -4h7q5 0 8 3.5t3 7.5v19q0 7 4.5 11.5t11.5 4.5h41v-73q0 -14 -10.5 -24.5t-25.5 -10.5h-43q-15 0 -29 8l-55 34q-8 4 -14 4h-6q-4 0 -7.5 -3t-3.5 -8v-19
q0 -7 -4.5 -11.5z" />
    <glyph glyph-name="Acircumflexsmall" horiz-adv-x="0" 
 />
    </font>
</defs>
</svg>
